# Blender 3.6.1
# www.blender.org
mtllib tombstone.mtl
o Tombstone
v -0.871679 1.974974 0.174336
v -0.871679 2.017748 0.200000
v -1.000000 2.017748 0.174336
v -0.871679 1.987502 0.192483
v -0.945765 1.993052 0.189153
v -0.962416 2.017748 0.192483
v -0.962416 1.987502 0.174336
v -0.871679 2.598867 0.200000
v -0.871679 2.641641 0.174336
v -1.000000 2.598867 0.174336
v -0.871679 2.629113 0.192483
v -0.945765 2.623563 0.189153
v -0.962416 2.629113 0.174336
v -0.962416 2.598867 0.192483
v -0.871679 1.974974 -0.174336
v -1.000000 2.017748 -0.174336
v -0.871679 2.017748 -0.200000
v -0.962416 1.987502 -0.174336
v -0.945765 1.993052 -0.189153
v -0.962416 2.017748 -0.192483
v -0.871679 1.987502 -0.192483
v -0.871679 2.641641 -0.174336
v -0.871679 2.598867 -0.200000
v -1.000000 2.598867 -0.174336
v -0.871679 2.629113 -0.192483
v -0.945765 2.623563 -0.189153
v -0.962416 2.598867 -0.192483
v -0.962416 2.629113 -0.174336
v 0.871679 1.974974 0.174336
v 1.000000 2.017748 0.174336
v 0.871679 2.017748 0.200000
v 0.962416 1.987502 0.174336
v 0.945765 1.993052 0.189153
v 0.962416 2.017748 0.192483
v 0.871679 1.987502 0.192483
v 0.871679 2.641641 0.174336
v 0.871679 2.598867 0.200000
v 1.000000 2.598867 0.174336
v 0.871679 2.629113 0.192483
v 0.945765 2.623563 0.189153
v 0.962416 2.598867 0.192483
v 0.962416 2.629113 0.174336
v 0.871679 2.017748 -0.200000
v 1.000000 2.017748 -0.174336
v 0.871679 1.974974 -0.174336
v 0.962416 2.017748 -0.192483
v 0.945765 1.993052 -0.189153
v 0.962416 1.987502 -0.174336
v 0.871679 1.987502 -0.192483
v 0.871679 2.641641 -0.174336
v 1.000000 2.598867 -0.174336
v 0.871679 2.598867 -0.200000
v 0.962416 2.629113 -0.174336
v 0.945765 2.623563 -0.189153
v 0.962416 2.598867 -0.192483
v 0.871679 2.629113 -0.192483
v 0.333333 1.974974 -0.174336
v 0.205012 2.017748 -0.200000
v 0.295749 1.987502 -0.192483
v -0.205012 2.017748 -0.200000
v -0.333333 1.974974 -0.174336
v -0.295749 1.987502 -0.192483
v -0.333333 2.641641 -0.174336
v -0.205012 2.598867 -0.200000
v -0.295749 2.629113 -0.192483
v 0.205012 2.598867 -0.200000
v 0.333333 2.641641 -0.174336
v 0.295749 2.629113 -0.192483
v -0.333333 1.974974 0.174336
v -0.205012 2.017748 0.200000
v -0.295749 1.987502 0.192483
v 0.205012 2.017748 0.200000
v 0.333333 1.974974 0.174336
v 0.295749 1.987502 0.192483
v 0.333333 2.641641 0.174336
v 0.205012 2.598867 0.200000
v 0.295749 2.629113 0.192483
v -0.205012 2.598867 0.200000
v -0.333333 2.641641 0.174336
v -0.295749 2.629113 0.192483
v -0.205012 3.298867 -0.200000
v -0.333333 3.298867 -0.174336
v -0.205012 3.341641 -0.174336
v -0.295749 3.298867 -0.192483
v -0.279098 3.323563 -0.189153
v -0.295749 3.329113 -0.174336
v -0.205012 3.329113 -0.192483
v 0.205012 3.298867 -0.200000
v 0.205012 3.341641 -0.174336
v 0.333333 3.298867 -0.174336
v 0.205012 3.329113 -0.192483
v 0.279098 3.323563 -0.189153
v 0.295749 3.329113 -0.174336
v 0.295749 3.298867 -0.192483
v 0.205012 3.298867 0.200000
v 0.333333 3.298867 0.174336
v 0.205012 3.341641 0.174336
v 0.295749 3.298867 0.192483
v 0.279098 3.323563 0.189153
v 0.295749 3.329113 0.174336
v 0.205012 3.329113 0.192483
v -0.205012 3.298867 0.200000
v -0.205012 3.341641 0.174336
v -0.333333 3.298867 0.174336
v -0.205012 3.329113 0.192483
v -0.279098 3.323563 0.189153
v -0.295749 3.329113 0.174336
v -0.295749 3.298867 0.192483
v 0.205012 0.317748 -0.200000
v 0.333333 0.317748 -0.174336
v 0.205012 0.274974 -0.174336
v 0.295749 0.317748 -0.192483
v 0.279099 0.293052 -0.189153
v 0.295749 0.287502 -0.174336
v 0.205012 0.287502 -0.192483
v -0.205012 0.317748 -0.200000
v -0.205012 0.274974 -0.174336
v -0.333333 0.317748 -0.174336
v -0.205012 0.287502 -0.192483
v -0.279098 0.293052 -0.189153
v -0.295749 0.287502 -0.174336
v -0.295749 0.317748 -0.192483
v -0.205012 0.317748 0.200000
v -0.333333 0.317748 0.174336
v -0.205012 0.274974 0.174336
v -0.295749 0.317748 0.192483
v -0.279099 0.293052 0.189153
v -0.295749 0.287502 0.174336
v -0.205012 0.287502 0.192483
v 0.205012 0.317748 0.200000
v 0.205012 0.274974 0.174336
v 0.333333 0.317748 0.174336
v 0.205012 0.287502 0.192483
v 0.279098 0.293052 0.189153
v 0.295749 0.287502 0.174336
v 0.295749 0.317748 0.192483
v 0.205012 0.317748 -0.200000
v 0.333333 0.317748 -0.174336
v 0.295749 0.317748 -0.192483
v -0.205012 0.317748 -0.200000
v -0.333333 0.317748 -0.174336
v -0.295749 0.317748 -0.192483
v -0.205012 0.317748 0.200000
v -0.333333 0.317748 0.174336
v -0.295749 0.317748 0.192483
v 0.205012 0.317748 0.200000
v 0.333333 0.317748 0.174336
v 0.295749 0.317748 0.192483
v 0.205012 0.317748 -0.200000
v 0.333333 0.317748 -0.174336
v 0.295749 0.317748 -0.192483
v -0.205012 0.317748 -0.200000
v -0.333333 0.317748 -0.174336
v -0.295749 0.317748 -0.192483
v -0.205012 0.317748 0.200000
v -0.333333 0.317748 0.174336
v -0.295749 0.317748 0.192483
v 0.205012 0.317748 0.200000
v 0.333333 0.317748 0.174336
v 0.295749 0.317748 0.192483
v 0.205012 0.317748 -0.200000
v 0.333333 0.317748 -0.174336
v 0.295749 0.317748 -0.192483
v -0.205012 0.317748 -0.200000
v -0.333333 0.317748 -0.174336
v -0.295749 0.317748 -0.192483
v -0.205012 0.317748 0.200000
v -0.333333 0.317748 0.174336
v -0.295749 0.317748 0.192483
v 0.205012 0.317748 0.200000
v 0.333333 0.317748 0.174336
v 0.295749 0.317748 0.192483
v 0.257771 0.217748 -0.251469
v 0.419115 0.217748 -0.219200
v 0.371858 0.217748 -0.242018
v -0.257771 0.217748 -0.251469
v -0.419115 0.217748 -0.219200
v -0.371858 0.217748 -0.242018
v -0.257771 0.217748 0.251469
v -0.419115 0.217748 0.219200
v -0.371858 0.217748 0.242018
v 0.257771 0.217748 0.251469
v 0.419115 0.217748 0.219200
v 0.371858 0.217748 0.242018
v 0.254139 0.116045 -0.251469
v 0.415482 0.116045 -0.219200
v 0.368226 0.116045 -0.242018
v -0.261403 0.116045 -0.251469
v -0.422747 0.116045 -0.219200
v -0.375490 0.116045 -0.242018
v -0.261403 0.116045 0.251469
v -0.422747 0.116045 0.219200
v -0.375490 0.116045 0.242017
v 0.254139 0.116045 0.251469
v 0.415482 0.116045 0.219200
v 0.368226 0.116045 0.242017
v 0.254139 0.116045 -0.251469
v 0.415482 0.116045 -0.219200
v 0.368226 0.116045 -0.242018
v -0.261403 0.116045 -0.251469
v -0.422747 0.116045 -0.219200
v -0.375490 0.116045 -0.242018
v -0.261403 0.116045 0.251469
v -0.422747 0.116045 0.219200
v -0.375490 0.116045 0.242017
v 0.254139 0.116045 0.251469
v 0.415482 0.116045 0.219200
v 0.368226 0.116045 0.242017
v 0.279448 0.003444 -0.276159
v 0.456633 0.003444 -0.240722
v 0.404737 0.003444 -0.265780
v -0.286712 0.003444 -0.276159
v -0.463898 0.003444 -0.240722
v -0.412001 0.003444 -0.265780
v -0.286712 0.003444 0.276159
v -0.463898 0.003444 0.240722
v -0.412001 0.003444 0.265780
v 0.279448 0.003444 0.276159
v 0.456633 0.003444 0.240722
v 0.404737 0.003444 0.265780
vn -0.0000 -0.0000 1.0000
vn -0.0000 -0.0000 -1.0000
vn -0.0000 1.0000 -0.0000
vn 1.0000 -0.0000 -0.0000
vn -1.0000 -0.0000 -0.0000
vn -0.0000 -1.0000 -0.0000
vn -0.1036 -0.8491 0.5180
vn -0.0713 -0.2140 0.9742
vn -0.4243 -0.4659 0.7765
vn -0.0713 0.2140 0.9742
vn -0.1036 0.8491 0.5180
vn -0.4243 0.4659 0.7765
vn -0.1036 -0.8491 -0.5180
vn -0.4243 -0.4659 -0.7765
vn -0.0713 -0.2140 -0.9742
vn -0.1036 0.8491 -0.5180
vn -0.0713 0.2140 -0.9742
vn -0.4243 0.4659 -0.7765
vn 0.1036 -0.8491 0.5180
vn 0.4243 -0.4659 0.7765
vn 0.0713 -0.2140 0.9742
vn 0.1036 0.8491 0.5180
vn 0.0713 0.2140 0.9742
vn 0.4243 0.4659 0.7765
vn 0.0713 -0.2140 -0.9742
vn 0.4243 -0.4659 -0.7765
vn 0.1036 -0.8491 -0.5180
vn 0.1036 0.8491 -0.5180
vn 0.4243 0.4659 -0.7765
vn 0.0713 0.2140 -0.9742
vn -0.1368 -0.9906 -0.0000
vn -0.6269 -0.7791 -0.0000
vn -0.0826 -0.0000 0.9966
vn -0.4348 -0.0000 0.9005
vn -0.1368 0.9906 -0.0000
vn -0.6269 0.7791 -0.0000
vn -0.0826 -0.0000 -0.9966
vn -0.4348 -0.0000 -0.9005
vn -0.0000 -0.8229 -0.5681
vn -0.0000 -0.2412 -0.9705
vn -0.0000 0.8229 -0.5681
vn -0.0000 0.2412 -0.9705
vn 0.4348 -0.0000 -0.9005
vn 0.0826 -0.0000 -0.9966
vn 0.1368 -0.9906 -0.0000
vn 0.6269 -0.7791 -0.0000
vn 0.1368 0.9906 -0.0000
vn 0.6269 0.7791 -0.0000
vn 0.0826 -0.0000 0.9966
vn 0.4348 -0.0000 0.9005
vn -0.0000 -0.8229 0.5681
vn -0.0000 -0.2412 0.9705
vn -0.0000 0.8229 0.5681
vn -0.0000 0.2412 0.9705
vn 0.6270 0.7791 -0.0000
vn -0.6270 0.7791 -0.0000
vn -0.0000 0.4576 -0.8891
vn -0.3433 0.6136 0.7111
vn -0.0721 0.4863 -0.8708
vn -0.0000 0.4576 0.8891
vn 0.0721 0.4863 0.8708
vn -0.3433 0.6136 -0.7111
vn -0.7590 0.6511 -0.0000
vn 0.0721 0.4863 -0.8708
vn 0.3433 0.6136 0.7111
vn -0.0721 0.4863 0.8708
vn 0.7590 0.6511 -0.0000
vn 0.3433 0.6136 -0.7111
vn 0.4348 -0.0155 -0.9004
vn -0.4348 0.0155 0.9004
vn -0.0826 0.0029 -0.9966
vn 0.0826 -0.0029 0.9966
vn -0.4348 0.0155 -0.9004
vn -0.9994 0.0357 -0.0000
vn 0.0826 -0.0029 -0.9966
vn 0.4348 -0.0155 0.9004
vn -0.0826 0.0029 0.9966
vn 0.9994 -0.0357 -0.0000
vn -0.0803 0.2307 0.9697
vn 0.9392 0.3433 -0.0000
vn 0.4128 0.3143 -0.8549
vn -0.0000 0.2142 -0.9768
vn -0.4128 0.3143 0.8549
vn -0.0803 0.2307 -0.9697
vn -0.0000 0.2142 0.9768
vn 0.0803 0.2307 0.9697
vn -0.4128 0.3143 -0.8549
vn -0.9392 0.3433 -0.0000
vn 0.0803 0.2307 -0.9697
vn 0.4128 0.3143 0.8549
vt 0.391040 0.900627
vt 0.608960 0.900626
vt 0.608960 0.983960
vt 0.391040 0.983960
vt 0.375000 0.349373
vt 0.375000 0.400627
vt 0.375000 0.400627
vt 0.375000 0.349373
vt 0.391040 0.766040
vt 0.608960 0.766040
vt 0.608960 0.849373
vt 0.391040 0.849373
vt 0.791667 0.516040
vt 0.858960 0.516040
vt 0.858960 0.733960
vt 0.791667 0.733960
vt 0.391040 0.516040
vt 0.608960 0.516040
vt 0.608960 0.733960
vt 0.391040 0.733960
vt 0.391040 0.266040
vt 0.608960 0.266040
vt 0.608960 0.349373
vt 0.391040 0.349373
vt 0.391040 0.400627
vt 0.608960 0.400626
vt 0.608960 0.483960
vt 0.391040 0.483960
vt 0.791667 0.516040
vt 0.791667 0.733960
vt 0.791667 0.516040
vt 0.391040 0.016040
vt 0.608960 0.016040
vt 0.608960 0.233960
vt 0.391040 0.233960
vt 0.625000 0.900627
vt 0.625000 0.849374
vt 0.625000 0.849373
vt 0.625000 0.900626
vt 0.641040 0.516040
vt 0.708333 0.516040
vt 0.708333 0.733960
vt 0.641040 0.733960
vt 0.375000 0.849373
vt 0.375000 0.900626
vt 0.375000 0.900627
vt 0.375000 0.849373
vt 0.291667 0.516040
vt 0.358960 0.516040
vt 0.358960 0.733960
vt 0.291667 0.733960
vt 0.291667 0.516040
vt 0.291667 0.733960
vt 0.391040 0.849373
vt 0.608960 0.849373
vt 0.608960 0.900626
vt 0.708333 0.516040
vt 0.724373 0.516040
vt 0.775626 0.516040
vt 0.775627 0.733960
vt 0.724373 0.733960
vt 0.391040 0.349373
vt 0.608960 0.349373
vt 0.608960 0.400627
vt 0.391040 0.400627
vt 0.625000 0.400627
vt 0.625000 0.349373
vt 0.625000 0.349373
vt 0.625000 0.400627
vt 0.208333 0.733960
vt 0.208333 0.516040
vt 0.208333 0.516040
vt 0.208333 0.733960
vt 0.141040 0.733960
vt 0.141040 0.750000
vt 0.131779 0.750000
vt 0.125000 0.733960
vt 0.391040 1.000000
vt 0.381779 1.000000
vt 0.375000 0.983960
vt 0.375000 0.016040
vt 0.375000 0.006779
vt 0.391040 0.000000
vt 0.625000 0.983960
vt 0.625000 0.993221
vt 0.608960 1.000000
vt 0.875000 0.733960
vt 0.875000 0.743221
vt 0.858960 0.750000
vt 0.608960 0.000000
vt 0.618221 0.000000
vt 0.625000 0.016040
vt 0.141040 0.516040
vt 0.125000 0.516040
vt 0.125000 0.506779
vt 0.141040 0.500000
vt 0.391040 0.250000
vt 0.381779 0.250000
vt 0.375000 0.233960
vt 0.375000 0.266040
vt 0.375000 0.256779
vt 0.858960 0.500000
vt 0.868221 0.500000
vt 0.875000 0.516040
vt 0.608960 0.250000
vt 0.618221 0.250000
vt 0.625000 0.266040
vt 0.625000 0.233960
vt 0.625000 0.243221
vt 0.375000 0.733960
vt 0.377260 0.750000
vt 0.358960 0.750000
vt 0.391040 0.750000
vt 0.375000 0.766040
vt 0.641040 0.750000
vt 0.625000 0.747740
vt 0.625000 0.733960
vt 0.608960 0.750000
vt 0.625000 0.766040
vt 0.391040 0.500000
vt 0.375000 0.502260
vt 0.375000 0.483960
vt 0.375000 0.516040
vt 0.358960 0.500000
vt 0.625000 0.516040
vt 0.622740 0.500000
vt 0.641040 0.500000
vt 0.608960 0.500000
vt 0.625000 0.483960
vt 0.625000 0.333333
vt 0.791667 0.506779
vt 0.791667 0.500000
vt 0.775627 0.500000
vt 0.784887 0.500000
vt 0.625000 0.409887
vt 0.625000 0.416667
vt 0.708333 0.506779
vt 0.724373 0.500000
vt 0.708333 0.500000
vt 0.625000 0.833333
vt 0.625000 0.849373
vt 0.708333 0.743221
vt 0.708333 0.750000
vt 0.724373 0.750000
vt 0.715113 0.750000
vt 0.625000 0.909887
vt 0.625000 0.916667
vt 0.791667 0.743221
vt 0.775627 0.750000
vt 0.791667 0.750000
vt 0.208333 0.500000
vt 0.291667 0.750000
vt 0.375000 0.833333
vt 0.291667 0.500000
vt 0.375000 0.333333
vt 0.208333 0.516040
vt 0.625000 0.416667
vt 0.375000 0.833333
vt 0.625000 0.916667
vt 0.375000 0.416667
vt 0.791667 0.500000
vt 0.208333 0.733960
vt 0.208333 0.750000
vt 0.375000 0.916667
vt 0.208333 0.750000
s 0
f 70/1/1 78/2/1 8/3/1 2/4/1
f 60/5/2 58/6/2 109/7/2 116/8/2
f 31/9/1 37/10/1 76/11/1 72/12/1
f 63/13/3 22/14/3 9/15/3 79/16/3
f 44/17/4 51/18/4 38/19/4 30/20/4
f 17/21/2 23/22/2 64/23/2 60/24/2
f 58/25/2 66/26/2 52/27/2 43/28/2
f 63/29/5 79/16/5 104/30/5 82/31/5
f 3/32/5 10/33/5 24/34/5 16/35/5
f 78/36/1 76/37/1 95/38/1 102/39/1
f 50/40/3 67/41/3 75/42/3 36/43/3
f 72/44/1 70/45/1 123/46/1 130/47/1
f 57/48/6 45/49/6 29/50/6 73/51/6
f 57/52/4 73/51/4 132/53/4 110/52/4
f 72/54/1 76/55/1 78/56/1 70/1/1
f 75/42/4 67/57/4 90/57/4 96/42/4
f 89/58/3 83/59/3 103/60/3 97/61/3
f 60/62/2 64/63/2 66/64/2 58/65/2
f 66/66/2 64/67/2 81/68/2 88/69/2
f 69/70/5 61/71/5 118/72/5 124/73/5
f 1/74/7 4/75/7 5/76/7 7/77/7
f 2/4/8 6/78/8 5/79/8 4/80/8
f 3/32/9 7/81/9 5/82/9 6/83/9
f 8/3/10 11/84/10 12/85/10 14/86/10
f 9/15/11 13/87/11 12/88/11 11/89/11
f 10/33/12 14/90/12 12/91/12 13/92/12
f 15/93/13 18/94/13 19/95/13 21/96/13
f 16/35/14 20/97/14 19/98/14 18/99/14
f 17/21/15 21/100/15 19/101/15 20/97/15
f 22/14/16 25/102/16 26/103/16 28/104/16
f 23/22/17 27/105/17 26/106/17 25/107/17
f 24/34/18 28/108/18 26/109/18 27/105/18
f 29/50/19 32/110/19 33/111/19 35/112/19
f 30/20/20 34/113/20 33/111/20 32/110/20
f 31/9/21 35/114/21 33/111/21 34/113/21
f 36/43/22 39/115/22 40/116/22 42/117/22
f 37/10/23 41/118/23 40/116/23 39/119/23
f 38/19/24 42/117/24 40/116/24 41/118/24
f 43/28/25 46/120/25 47/121/25 49/122/25
f 44/17/26 48/123/26 47/121/26 46/120/26
f 45/49/27 49/124/27 47/121/27 48/123/27
f 50/40/28 53/125/28 54/126/28 56/127/28
f 51/18/29 55/128/29 54/126/29 53/125/29
f 52/27/30 56/129/30 54/126/30 55/128/30
f 81/68/17 84/130/17 85/130/17 87/67/17
f 82/31/18 86/13/18 85/131/18 84/132/18
f 83/59/16 87/133/16 85/134/16 86/13/16
f 88/69/30 91/69/30 92/135/30 94/136/30
f 89/58/28 93/57/28 92/137/28 91/138/28
f 90/57/29 94/139/29 92/139/29 93/57/29
f 95/38/23 98/140/23 99/140/23 101/141/23
f 96/42/24 100/42/24 99/142/24 98/143/24
f 97/61/22 101/144/22 99/145/22 100/42/22
f 102/39/10 105/36/10 106/146/10 108/147/10
f 103/60/11 107/16/11 106/148/11 105/149/11
f 104/30/12 108/150/12 106/150/12 107/16/12
f 118/72/3 122/151/3 142/151/3 141/72/3
f 110/52/3 132/53/3 147/53/3 138/52/3
f 132/53/3 136/152/3 148/152/3 147/53/3
f 136/153/3 130/47/3 146/47/3 148/153/3
f 112/154/3 110/52/3 138/52/3 139/154/3
f 130/47/3 123/46/3 143/46/3 146/47/3
f 116/8/3 109/7/3 137/7/3 140/8/3
f 124/73/3 118/72/3 141/72/3 144/73/3
f 122/155/3 116/8/3 140/8/3 142/155/3
f 15/93/31 1/74/31 7/77/31 18/94/31
f 18/99/32 7/81/32 3/32/32 16/35/32
f 2/4/33 8/3/33 14/86/33 6/78/33
f 6/83/34 14/90/34 10/33/34 3/32/34
f 9/15/35 22/14/35 28/104/35 13/87/35
f 13/92/36 28/108/36 24/34/36 10/33/36
f 23/22/37 17/21/37 20/97/37 27/105/37
f 27/105/38 20/97/38 16/35/38 24/34/38
f 61/156/39 15/93/39 21/96/39 62/151/39
f 62/155/40 21/100/40 17/21/40 60/24/40
f 67/41/41 50/40/41 56/127/41 68/139/41
f 68/157/42 56/129/42 52/27/42 66/26/42
f 51/18/43 44/17/43 46/120/43 55/128/43
f 55/128/44 46/120/44 43/28/44 52/27/44
f 29/50/45 45/49/45 48/123/45 32/110/45
f 32/110/46 48/123/46 44/17/46 30/20/46
f 50/40/47 36/43/47 42/117/47 53/125/47
f 53/125/48 42/117/48 38/19/48 51/18/48
f 37/10/49 31/9/49 34/113/49 41/118/49
f 41/118/50 34/113/50 30/20/50 38/19/50
f 73/51/51 29/50/51 35/112/51 74/152/51
f 74/158/52 35/114/52 31/9/52 72/12/52
f 79/16/53 9/15/53 11/89/53 80/150/53
f 80/159/54 11/84/54 8/3/54 78/2/54
f 45/49/39 57/48/39 59/154/39 49/124/39
f 49/122/40 59/160/40 58/25/40 43/28/40
f 22/14/41 63/13/41 65/161/41 25/102/41
f 25/107/42 65/130/42 64/23/42 23/22/42
f 1/74/51 69/162/51 71/163/51 4/75/51
f 4/80/52 71/164/52 70/1/52 2/4/52
f 36/43/53 75/42/53 77/143/53 39/115/53
f 39/119/54 77/140/54 76/11/54 37/10/54
f 83/59/41 89/58/41 91/138/41 87/133/41
f 87/67/42 91/69/42 88/69/42 81/68/42
f 97/61/53 103/60/53 105/149/53 101/144/53
f 101/141/54 105/36/54 102/39/54 95/38/54
f 89/58/47 97/61/47 100/42/47 93/57/47
f 93/57/55 100/42/55 96/42/55 90/57/55
f 82/31/56 104/30/56 107/16/56 86/13/56
f 86/13/35 107/16/35 103/60/35 83/59/35
f 63/29/38 82/31/38 84/132/38 65/161/38
f 65/130/37 84/130/37 81/68/37 64/67/37
f 90/57/43 67/57/43 68/139/43 94/139/43
f 94/136/44 68/157/44 66/66/44 88/69/44
f 95/38/49 76/37/49 77/140/49 98/140/49
f 98/143/50 77/143/50 75/42/50 96/42/50
f 78/36/33 102/39/33 108/147/33 80/159/33
f 80/150/34 108/150/34 104/30/34 79/16/34
f 126/165/3 124/73/3 144/73/3 145/165/3
f 109/7/3 112/160/3 139/160/3 137/7/3
f 123/46/3 126/164/3 145/164/3 143/46/3
f 69/70/34 124/73/34 126/165/34 71/163/34
f 71/164/33 126/164/33 123/46/33 70/45/33
f 132/53/50 73/51/50 74/152/50 136/152/50
f 136/153/49 74/158/49 72/44/49 130/47/49
f 57/52/43 110/52/43 112/154/43 59/154/43
f 59/160/44 112/160/44 109/7/44 58/6/44
f 118/72/38 61/71/38 62/151/38 122/151/38
f 122/155/37 62/155/37 60/5/37 116/8/37
f 15/93/6 61/156/6 69/162/6 1/74/6
f 145/165/3 144/73/3 156/73/3 157/165/3
f 142/155/3 140/8/3 152/8/3 154/155/3
f 146/47/3 143/46/3 155/46/3 158/47/3
f 148/153/3 146/47/3 158/47/3 160/153/3
f 141/72/3 142/151/3 154/151/3 153/72/3
f 144/73/3 141/72/3 153/72/3 156/73/3
f 137/7/3 139/160/3 151/160/3 149/7/3
f 147/53/3 148/152/3 160/152/3 159/53/3
f 143/46/3 145/164/3 157/164/3 155/46/3
f 138/52/3 147/53/3 159/53/3 150/52/3
f 139/154/3 138/52/3 150/52/3 151/154/3
f 140/8/3 137/7/3 149/7/3 152/8/3
f 157/165/3 156/73/3 168/73/3 169/165/3
f 154/155/3 152/8/3 164/8/3 166/155/3
f 158/47/3 155/46/3 167/46/3 170/47/3
f 160/153/3 158/47/3 170/47/3 172/153/3
f 153/72/3 154/151/3 166/151/3 165/72/3
f 156/73/3 153/72/3 165/72/3 168/73/3
f 149/7/3 151/160/3 163/160/3 161/7/3
f 159/53/3 160/152/3 172/152/3 171/53/3
f 155/46/3 157/164/3 169/164/3 167/46/3
f 150/52/3 159/53/3 171/53/3 162/52/3
f 151/154/3 150/52/3 162/52/3 163/154/3
f 152/8/3 149/7/3 161/7/3 164/8/3
f 164/8/57 161/7/57 173/7/57 176/8/57
f 169/165/58 168/73/58 180/73/58 181/165/58
f 166/155/59 164/8/59 176/8/59 178/155/59
f 170/47/60 167/46/60 179/46/60 182/47/60
f 172/153/61 170/47/61 182/47/61 184/153/61
f 165/72/62 166/151/62 178/151/62 177/72/62
f 168/73/63 165/72/63 177/72/63 180/73/63
f 161/7/64 163/160/64 175/160/64 173/7/64
f 171/53/65 172/152/65 184/152/65 183/53/65
f 167/46/66 169/164/66 181/164/66 179/46/66
f 162/52/67 171/53/67 183/53/67 174/52/67
f 163/154/68 162/52/68 174/52/68 175/154/68
f 175/154/69 174/52/69 186/52/69 187/154/69
f 176/8/2 173/7/2 185/7/2 188/8/2
f 181/165/70 180/73/70 192/73/70 193/165/70
f 178/155/71 176/8/71 188/8/71 190/155/71
f 182/47/1 179/46/1 191/46/1 194/47/1
f 184/153/72 182/47/72 194/47/72 196/153/72
f 177/72/73 178/151/73 190/151/73 189/72/73
f 180/73/74 177/72/74 189/72/74 192/73/74
f 173/7/75 175/160/75 187/160/75 185/7/75
f 183/53/76 184/152/76 196/152/76 195/53/76
f 179/46/77 181/164/77 193/164/77 191/46/77
f 174/52/78 183/53/78 195/53/78 186/52/78
f 186/52/3 195/53/3 207/53/3 198/52/3
f 187/154/3 186/52/3 198/52/3 199/154/3
f 188/8/3 185/7/3 197/7/3 200/8/3
f 193/165/3 192/73/3 204/73/3 205/165/3
f 190/155/3 188/8/3 200/8/3 202/155/3
f 194/47/3 191/46/3 203/46/3 206/47/3
f 196/153/3 194/47/3 206/47/3 208/153/3
f 189/72/3 190/151/3 202/151/3 201/72/3
f 192/73/3 189/72/3 201/72/3 204/73/3
f 185/7/3 187/160/3 199/160/3 197/7/3
f 195/53/3 196/152/3 208/152/3 207/53/3
f 191/46/3 193/164/3 205/164/3 203/46/3
f 203/46/79 205/164/79 217/164/79 215/46/79
f 198/52/80 207/53/80 219/53/80 210/52/80
f 199/154/81 198/52/81 210/52/81 211/154/81
f 200/8/82 197/7/82 209/7/82 212/8/82
f 205/165/83 204/73/83 216/73/83 217/165/83
f 202/155/84 200/8/84 212/8/84 214/155/84
f 206/47/85 203/46/85 215/46/85 218/47/85
f 208/153/86 206/47/86 218/47/86 220/153/86
f 201/72/87 202/151/87 214/151/87 213/72/87
f 204/73/88 201/72/88 213/72/88 216/73/88
f 197/7/89 199/160/89 211/160/89 209/7/89
f 207/53/90 208/152/90 220/152/90 219/53/90
f 209/7/6 211/154/6 210/52/6 219/53/6 220/153/6 218/47/6 215/46/6 217/165/6 216/73/6 213/72/6 214/155/6 212/8/6
l 115 109
l 112 113
l 113 115
l 110 114
l 114 113
l 114 111
l 116 119
l 119 120
l 120 122
l 121 120
l 121 118
l 129 123
l 126 127
l 127 129
l 124 128
l 128 127
l 125 129
l 130 133
l 133 134
l 134 136
l 133 131
l 131 135
l 135 134
l 135 132
l 125 131
l 133 129
l 135 114
l 131 111
