# Blender 3.6.1
# www.blender.org
mtllib beam.mtl
o Beam
v -0.100000 0.000000 0.100000
v -0.100000 8.000000 0.100000
v -0.100000 0.000000 -0.100000
v -0.100000 8.000000 -0.100000
v 0.100000 0.000000 0.100000
v 0.100000 8.000000 0.100000
v 0.100000 0.000000 -0.100000
v 0.100000 8.000000 -0.100000
v 0.000000 7.781359 0.081359
v 1.618569 7.781359 0.081358
v 0.000000 7.781359 -0.081358
v 1.618569 7.781359 -0.081359
v 0.000000 7.618642 0.081359
v 1.618569 7.618641 0.081358
v 0.000000 7.618642 -0.081358
v 1.618569 7.618641 -0.081359
v -0.042575 6.352703 0.063088
v 1.394080 7.752380 0.063088
v -0.042575 6.352703 -0.063088
v 1.394080 7.752380 -0.063088
v 0.046645 6.263483 0.063088
v 1.483301 7.663159 0.063088
v 0.046645 6.263483 -0.063088
v 1.483301 7.663159 -0.063088
v -0.081359 7.781358 0.000000
v -0.081358 7.781358 1.618569
v 0.081358 7.781358 0.000000
v 0.081359 7.781358 1.618569
v -0.081359 7.618641 0.000000
v -0.081358 7.618641 1.618569
v 0.081358 7.618641 0.000000
v 0.081359 7.618641 1.618569
v -0.063088 6.352703 -0.042575
v -0.063088 7.752379 1.394080
v 0.063088 6.352703 -0.042575
v 0.063088 7.752379 1.394080
v -0.063088 6.263482 0.046645
v -0.063088 7.663159 1.483301
v 0.063088 6.263482 0.046645
v 0.063088 7.663159 1.483301
v 0.000000 7.781358 -0.081359
v -1.618569 7.781358 -0.081358
v 0.000000 7.781358 0.081358
v -1.618569 7.781358 0.081359
v 0.000000 7.618641 -0.081359
v -1.618569 7.618640 -0.081358
v 0.000000 7.618641 0.081358
v -1.618569 7.618640 0.081359
v 0.042575 6.352702 -0.063088
v -1.394080 7.752379 -0.063088
v 0.042575 6.352702 0.063088
v -1.394080 7.752379 0.063088
v -0.046645 6.263482 -0.063088
v -1.483301 7.663158 -0.063088
v -0.046645 6.263482 0.063088
v -1.483301 7.663158 0.063088
v 0.081359 7.781357 0.000000
v 0.081358 7.781357 -1.618569
v -0.081358 7.781357 0.000000
v -0.081359 7.781357 -1.618569
v 0.081359 7.618640 0.000000
v 0.081358 7.618640 -1.618569
v -0.081358 7.618640 0.000000
v -0.081359 7.618640 -1.618569
v 0.063088 6.352702 0.042575
v 0.063088 7.752378 -1.394080
v -0.063088 6.352702 0.042575
v -0.063088 7.752378 -1.394080
v 0.063088 6.263481 -0.046645
v 0.063088 7.663158 -1.483301
v -0.063088 6.263481 -0.046645
v -0.063088 7.663158 -1.483301
vn -1.0000 -0.0000 -0.0000
vn -0.0000 -0.0000 -1.0000
vn 1.0000 -0.0000 -0.0000
vn -0.0000 -0.0000 1.0000
vn -0.0000 -1.0000 -0.0000
vn -0.0000 1.0000 -0.0000
vn -0.6978 0.7163 -0.0000
vn 0.6978 -0.7163 -0.0000
vn -0.0000 0.7163 -0.6978
vn -0.0000 -0.7163 0.6978
vn 0.6978 0.7163 -0.0000
vn -0.6978 -0.7163 -0.0000
vn -0.0000 0.7163 0.6978
vn -0.0000 -0.7163 -0.6978
vt 0.375000 0.000000
vt 0.625000 0.000000
vt 0.625000 0.250000
vt 0.375000 0.250000
vt 0.625000 0.500000
vt 0.375000 0.500000
vt 0.625000 0.750000
vt 0.375000 0.750000
vt 0.625000 1.000000
vt 0.375000 1.000000
vt 0.125000 0.500000
vt 0.125000 0.750000
vt 0.875000 0.500000
vt 0.875000 0.750000
s 0
f 1/1/1 2/2/1 4/3/1 3/4/1
f 3/4/2 4/3/2 8/5/2 7/6/2
f 7/6/3 8/5/3 6/7/3 5/8/3
f 5/8/4 6/7/4 2/9/4 1/10/4
f 3/11/5 7/6/5 5/8/5 1/12/5
f 8/5/6 4/13/6 2/14/6 6/7/6
f 9/1/6 10/2/6 12/3/6 11/4/6
f 11/4/2 12/3/2 16/5/2 15/6/2
f 15/6/5 16/5/5 14/7/5 13/8/5
f 13/8/4 14/7/4 10/9/4 9/10/4
f 25/1/6 26/2/6 28/3/6 27/4/6
f 16/5/3 12/13/3 10/14/3 14/7/3
f 17/1/7 18/2/7 20/3/7 19/4/7
f 19/4/2 20/3/2 24/5/2 23/6/2
f 23/6/8 24/5/8 22/7/8 21/8/8
f 21/8/4 22/7/4 18/9/4 17/10/4
f 31/6/5 32/5/5 30/7/5 29/8/5
f 27/4/3 28/3/3 32/5/3 31/6/3
f 29/8/1 30/7/1 26/9/1 25/10/1
f 32/5/4 28/13/4 26/14/4 30/7/4
f 33/1/9 34/2/9 36/3/9 35/4/9
f 35/4/3 36/3/3 40/5/3 39/6/3
f 39/6/10 40/5/10 38/7/10 37/8/10
f 37/8/1 38/7/1 34/9/1 33/10/1
f 41/1/6 42/2/6 44/3/6 43/4/6
f 47/6/5 48/5/5 46/7/5 45/8/5
f 43/4/4 44/3/4 48/5/4 47/6/4
f 45/8/2 46/7/2 42/9/2 41/10/2
f 48/5/1 44/13/1 42/14/1 46/7/1
f 49/1/11 50/2/11 52/3/11 51/4/11
f 51/4/4 52/3/4 56/5/4 55/6/4
f 55/6/12 56/5/12 54/7/12 53/8/12
f 53/8/2 54/7/2 50/9/2 49/10/2
f 57/1/6 58/2/6 60/3/6 59/4/6
f 63/6/5 64/5/5 62/7/5 61/8/5
f 59/4/1 60/3/1 64/5/1 63/6/1
f 61/8/3 62/7/3 58/9/3 57/10/3
f 64/5/2 60/13/2 58/14/2 62/7/2
f 65/1/13 66/2/13 68/3/13 67/4/13
f 67/4/1 68/3/1 72/5/1 71/6/1
f 71/6/14 72/5/14 70/7/14 69/8/14
f 69/8/3 70/7/3 66/9/3 65/10/3
