# Blender 3.6.1
# www.blender.org
mtllib bowl.mtl
o Bowl
v 0.000000 0.000000 -1.000000
v 0.000000 0.100000 -0.994726
v 0.500000 0.000000 -0.866025
v 0.497363 0.100000 -0.861458
v 0.866025 0.000000 -0.500000
v 0.861458 0.100000 -0.497363
v 1.000000 0.000000 0.000000
v 0.994726 0.100000 0.000000
v 0.866025 0.000000 0.500000
v 0.861458 0.100000 0.497363
v 0.500000 0.000000 0.866025
v 0.497363 0.100000 0.861458
v 0.000000 0.000000 1.000000
v 0.000000 0.100000 0.994726
v -0.500000 0.000000 0.866025
v -0.497363 0.100000 0.861458
v -0.866025 0.000000 0.500000
v -0.861458 0.100000 0.497363
v -1.000000 0.000000 0.000000
v -0.994726 0.100000 0.000000
v -0.866025 0.000000 -0.500000
v -0.861458 0.100000 -0.497363
v -0.500000 0.000000 -0.866025
v -0.497363 0.100000 -0.861458
v 0.627888 0.293071 -1.087535
v -0.000000 0.293071 -1.255777
v 1.087535 0.293071 -0.627888
v 1.255777 0.293071 -0.000000
v 1.087535 0.293071 0.627888
v 0.627888 0.293071 1.087535
v -0.000000 0.293071 1.255777
v -0.627888 0.293071 1.087535
v -1.087535 0.293071 0.627888
v -1.255777 0.293071 -0.000000
v -1.087535 0.293071 -0.627888
v -0.627888 0.293071 -1.087535
v 0.622601 0.293071 -1.078376
v -0.000000 0.293071 -1.245201
v 1.078376 0.293071 -0.622601
v 1.245201 0.293071 -0.000000
v 1.078376 0.293071 0.622601
v 0.622601 0.293071 1.078376
v -0.000000 0.293071 1.245201
v -0.622601 0.293071 1.078376
v -1.078376 0.293071 0.622601
v -1.245201 0.293071 -0.000000
v -1.078376 0.293071 -0.622601
v -0.622601 0.293071 -1.078376
v 0.715662 0.495561 -1.239562
v 0.000000 0.495561 -1.431323
v 1.239562 0.495561 -0.715662
v 1.431323 0.495561 -0.000000
v 1.239562 0.495561 0.715662
v 0.715662 0.495561 1.239562
v 0.000000 0.495561 1.431323
v -0.715662 0.495561 1.239562
v -1.239562 0.495561 0.715662
v -1.431323 0.495561 -0.000000
v -1.239562 0.495561 -0.715662
v -0.715662 0.495561 -1.239562
v 0.812128 0.773395 -1.406647
v 0.000000 0.773395 -1.624257
v 1.406647 0.773395 -0.812128
v 1.624257 0.773395 -0.000000
v 1.406647 0.773395 0.812128
v 0.812128 0.773395 1.406647
v 0.000000 0.773395 1.624257
v -0.812128 0.773395 1.406647
v -1.406647 0.773395 0.812128
v -1.624257 0.773395 -0.000000
v -1.406647 0.773395 -0.812128
v -0.812128 0.773395 -1.406647
v 0.870857 0.985302 -1.508369
v 0.000000 0.985302 -1.741714
v 1.508369 0.985302 -0.870857
v 1.741714 0.985302 -0.000000
v 1.508369 0.985302 0.870857
v 0.870857 0.985302 1.508369
v 0.000000 0.985302 1.741714
v -0.870857 0.985302 1.508369
v -1.508369 0.985302 0.870857
v -1.741714 0.985302 -0.000000
v -1.508369 0.985302 -0.870857
v -0.870857 0.985302 -1.508369
v 0.870857 1.272555 -1.508369
v 0.000000 1.272555 -1.741714
v 1.508369 1.272555 -0.870857
v 1.741714 1.272555 -0.000000
v 1.508369 1.272555 0.870857
v 0.870857 1.272555 1.508369
v 0.000000 1.272555 1.741714
v -0.870857 1.272555 1.508369
v -1.508369 1.272555 0.870857
v -1.741714 1.272555 -0.000000
v -1.508369 1.272555 -0.870857
v -0.870857 1.272555 -1.508369
v 0.000000 0.092449 -0.888911
v 0.444455 0.092449 -0.769819
v 0.448320 0.119302 -0.776513
v 0.000000 0.119302 -0.896640
v 0.769819 0.092449 -0.444455
v 0.776513 0.119302 -0.448320
v 0.888911 0.092449 0.000000
v 0.896640 0.119302 0.000000
v 0.769819 0.092449 0.444455
v 0.776513 0.119302 0.448320
v 0.444455 0.092449 0.769819
v 0.448320 0.119302 0.776513
v 0.000000 0.092449 0.888911
v 0.000000 0.119302 0.896640
v -0.444455 0.092449 0.769819
v -0.448320 0.119302 0.776513
v -0.769819 0.092449 0.444455
v -0.776513 0.119302 0.448320
v -0.888911 0.092449 0.000000
v -0.896640 0.119302 0.000000
v -0.769819 0.092449 -0.444455
v -0.776513 0.119302 -0.448320
v -0.478613 0.330315 0.828981
v -0.000000 0.330315 0.957225
v -0.444455 0.092449 -0.769819
v -0.448320 0.119302 -0.776513
v -0.000000 0.330315 -0.957225
v -0.000000 0.380284 -1.122439
v -0.561219 0.380284 -0.972060
v -0.478613 0.330315 -0.828981
v 0.478613 0.330315 0.828981
v 0.828981 0.330315 0.478613
v 0.957225 0.330315 -0.000000
v 0.478613 0.330315 -0.828981
v 0.828981 0.330315 -0.478613
v -0.828981 0.330315 -0.478613
v -0.957225 0.330315 -0.000000
v -0.828981 0.330315 0.478613
v 0.561219 0.380284 0.972060
v 0.679590 0.570836 1.177085
v 1.177085 0.570836 0.679590
v 0.972060 0.380284 0.561219
v 0.972060 0.380284 -0.561219
v 0.561219 0.380284 -0.972060
v -1.122439 0.380284 -0.000000
v -0.972060 0.380284 0.561219
v -0.000000 0.380284 1.122439
v 1.122439 0.380284 -0.000000
v -0.972060 0.380284 -0.561219
v -0.561219 0.380284 0.972060
v 0.768496 0.827536 1.331074
v 1.331074 0.827536 0.768496
v 0.000000 0.570836 -1.359181
v -0.679590 0.570836 -1.177085
v 1.177085 0.570836 -0.679590
v 0.679590 0.570836 -1.177085
v -1.359181 0.570836 -0.000000
v -1.177085 0.570836 0.679590
v 0.000000 0.570836 1.359181
v 1.359181 0.570836 -0.000000
v -1.177085 0.570836 -0.679590
v -0.679590 0.570836 1.177085
v -1.331074 0.827536 0.768496
v -1.418878 1.011168 0.819190
v -0.819190 1.011168 1.418878
v -0.768496 0.827536 1.331074
v 0.000000 0.827536 -1.536992
v -0.768496 0.827536 -1.331074
v 1.331074 0.827536 -0.768496
v 0.768496 0.827536 -1.331074
v -1.536992 0.827536 -0.000000
v 0.000000 0.827536 1.536992
v 1.536992 0.827536 -0.000000
v -1.331074 0.827536 -0.768496
v 0.819190 1.011168 -1.418878
v 0.819093 1.272555 -1.418711
v 0.000000 1.272555 -1.638187
v 0.000000 1.011168 -1.638380
v 0.819190 1.011168 1.418878
v 1.418878 1.011168 0.819190
v -0.819190 1.011168 -1.418878
v 1.418878 1.011168 -0.819190
v -1.638380 1.011168 -0.000000
v 0.000000 1.011168 1.638380
v 1.638380 1.011168 -0.000000
v -1.418878 1.011168 -0.819190
v -1.418711 1.272555 0.819093
v -0.819093 1.272555 1.418711
v 0.819093 1.272555 1.418711
v 1.418711 1.272555 0.819093
v -0.819093 1.272555 -1.418711
v 1.418711 1.272555 -0.819093
v -1.638187 1.272555 -0.000000
v 0.000000 1.272555 1.638187
v 1.638187 1.272555 -0.000000
v -1.418711 1.272555 -0.819093
v 0.000000 -1.000000 -1.000000
v 0.000000 1.000000 -1.000000
v 0.500000 -1.000000 -0.866025
v 0.500000 1.000000 -0.866025
v 0.866025 -1.000000 -0.500000
v 0.866025 1.000000 -0.500000
v 1.000000 -1.000000 0.000000
v 1.000000 1.000000 0.000000
v 0.866025 -1.000000 0.500000
v 0.866025 1.000000 0.500000
v 0.500000 -1.000000 0.866025
v 0.500000 1.000000 0.866025
v 0.000000 -1.000000 1.000000
v 0.000000 1.000000 1.000000
v -0.500000 -1.000000 0.866025
v -0.500000 1.000000 0.866025
v -0.866025 -1.000000 0.500000
v -0.866025 1.000000 0.500000
v -1.000000 -1.000000 0.000000
v -1.000000 1.000000 0.000000
v -0.866025 -1.000000 -0.500000
v -0.866025 1.000000 -0.500000
v -0.500000 -1.000000 -0.866025
v -0.500000 1.000000 -0.866025
vn 0.2585 0.0509 -0.9647
vn 0.7062 0.0509 -0.7062
vn 0.9647 0.0509 -0.2585
vn 0.9647 0.0509 0.2585
vn 0.7062 0.0509 0.7062
vn 0.2585 0.0509 0.9647
vn -0.2585 0.0509 0.9647
vn -0.7062 0.0509 0.7062
vn -0.9647 0.0509 0.2585
vn -0.9647 0.0509 -0.2585
vn -0.1573 -0.7940 0.5872
vn -0.7062 0.0509 -0.7062
vn -0.2585 0.0509 -0.9647
vn -0.0000 -1.0000 -0.0000
vn -0.0000 1.0000 -0.0000
vn 0.1573 -0.7940 0.5872
vn 0.4299 -0.7940 0.4299
vn 0.5872 -0.7940 0.1573
vn -0.1573 -0.7940 -0.5872
vn 0.1573 -0.7940 -0.5872
vn 0.5872 -0.7940 -0.1573
vn -0.4299 -0.7940 -0.4299
vn 0.4299 -0.7940 -0.4299
vn -0.5872 -0.7940 -0.1573
vn -0.5872 -0.7940 0.1573
vn -0.4299 -0.7940 0.4299
vn 0.5288 -0.6639 0.5288
vn 0.5872 -0.5571 0.5872
vn -0.1935 -0.6639 -0.7223
vn 0.5288 -0.6639 -0.5288
vn -0.7223 -0.6639 0.1935
vn 0.1935 -0.6639 0.7223
vn 0.7223 -0.6639 -0.1935
vn -0.7223 -0.6639 -0.1935
vn -0.1935 -0.6639 0.7223
vn 0.7223 -0.6639 0.1935
vn -0.5288 -0.6639 -0.5288
vn 0.1935 -0.6639 -0.7223
vn -0.5288 -0.6639 0.5288
vn -0.6234 -0.4720 0.6234
vn -0.2149 -0.5571 -0.8022
vn 0.5872 -0.5571 -0.5872
vn -0.8022 -0.5571 0.2149
vn 0.2149 -0.5571 0.8022
vn 0.8022 -0.5571 -0.2149
vn -0.8022 -0.5571 -0.2149
vn -0.2149 -0.5571 0.8022
vn 0.8022 -0.5571 0.2149
vn -0.5872 -0.5571 -0.5872
vn 0.2149 -0.5571 -0.8022
vn -0.5872 -0.5571 0.5872
vn 0.2588 -0.0000 -0.9659
vn 0.6234 -0.4720 0.6234
vn -0.2282 -0.4720 -0.8516
vn 0.6234 -0.4720 -0.6234
vn -0.8516 -0.4720 0.2282
vn 0.2282 -0.4720 0.8516
vn 0.8516 -0.4720 -0.2282
vn -0.8516 -0.4720 -0.2282
vn -0.2282 -0.4720 0.8516
vn 0.8516 -0.4720 0.2282
vn -0.6234 -0.4720 -0.6234
vn 0.2282 -0.4720 -0.8516
vn -0.7071 -0.0000 0.7071
vn 0.7071 -0.0000 0.7071
vn -0.2588 -0.0000 -0.9659
vn 0.7071 -0.0000 -0.7071
vn -0.9659 -0.0000 0.2588
vn 0.2588 -0.0000 0.9659
vn 0.9659 -0.0000 -0.2588
vn -0.9659 -0.0000 -0.2588
vn -0.2588 -0.0000 0.9659
vn 0.9659 -0.0000 0.2588
vn -0.7071 -0.0000 -0.7071
vn -0.2494 0.2678 0.9306
vn -0.6813 0.2678 0.6813
vn -0.9306 0.2678 0.2494
vn -0.9306 0.2678 -0.2494
vn -0.6813 0.2678 -0.6813
vn -0.2494 0.2678 -0.9306
vn 0.2494 0.2678 -0.9306
vn 0.6813 0.2678 -0.6813
vn 0.9306 0.2678 -0.2494
vn 0.9306 0.2678 0.2494
vn 0.2494 0.2672 -0.9308
vn 0.6813 0.2678 0.6813
vn 0.2494 0.2678 0.9306
vn 0.0773 0.9543 0.2886
vn -0.2494 0.2672 -0.9308
vn -0.6814 0.2672 -0.6814
vn -0.9308 0.2672 -0.2494
vn 0.2494 0.2672 0.9308
vn -0.2494 0.2672 0.9308
vn -0.9308 0.2672 0.2494
vn 0.6814 0.2672 0.6814
vn -0.6814 0.2672 0.6814
vn 0.9308 0.2672 0.2494
vn 0.9308 0.2672 -0.2494
vn 0.6814 0.2672 -0.6814
vn -0.4527 0.7682 -0.4527
vn -0.2113 0.9543 0.2113
vn 0.2886 0.9543 -0.0773
vn -0.0773 0.9543 -0.2886
vn -0.2886 0.9543 0.0773
vn 0.2886 0.9543 0.0773
vn 0.0773 0.9543 -0.2886
vn -0.2886 0.9543 -0.0773
vn 0.2113 0.9543 0.2113
vn -0.0773 0.9543 0.2886
vn 0.2113 0.9543 -0.2113
vn -0.2113 0.9543 -0.2113
vn -0.5877 0.5561 -0.5877
vn 0.1657 0.7682 0.6184
vn -0.4527 0.7682 0.4527
vn 0.6184 0.7682 -0.1657
vn -0.1657 0.7682 -0.6184
vn -0.6184 0.7682 0.1657
vn 0.6184 0.7682 0.1657
vn 0.1657 0.7682 -0.6184
vn -0.6184 0.7682 -0.1657
vn 0.4527 0.7682 0.4527
vn -0.1657 0.7682 0.6184
vn 0.4527 0.7682 -0.4527
vn 0.6239 0.4706 -0.6239
vn 0.2151 0.5561 0.8028
vn -0.5877 0.5561 0.5877
vn 0.8028 0.5561 -0.2151
vn -0.2151 0.5561 -0.8028
vn -0.8028 0.5561 0.2151
vn 0.8028 0.5561 0.2151
vn 0.2151 0.5561 -0.8028
vn -0.8028 0.5561 -0.2151
vn 0.5877 0.5561 0.5877
vn -0.2151 0.5561 0.8028
vn 0.5877 0.5561 -0.5877
vn -0.2588 -0.0007 0.9659
vn -0.6239 0.4706 -0.6239
vn 0.2284 0.4706 0.8523
vn -0.6239 0.4706 0.6239
vn 0.8523 0.4706 -0.2284
vn -0.2284 0.4706 -0.8523
vn -0.8523 0.4706 0.2284
vn 0.8523 0.4706 0.2284
vn 0.2284 0.4706 -0.8523
vn -0.8523 0.4706 -0.2284
vn 0.6239 0.4706 0.6239
vn -0.2284 0.4706 0.8523
vn 0.7071 -0.0007 -0.7071
vn -0.7071 -0.0007 -0.7071
vn 0.2588 -0.0007 0.9659
vn -0.7071 -0.0007 0.7071
vn 0.9659 -0.0007 -0.2588
vn -0.2588 -0.0007 -0.9659
vn -0.9659 -0.0007 0.2588
vn 0.9659 -0.0007 0.2588
vn 0.2588 -0.0007 -0.9659
vn -0.9659 -0.0007 -0.2588
vn 0.7071 -0.0007 0.7071
vt 1.000000 0.500000
vt 0.916667 1.000000
vt 0.916667 0.500000
vt 0.833333 1.000000
vt 0.833333 0.500000
vt 0.750000 1.000000
vt 0.750000 0.500000
vt 0.666667 1.000000
vt 0.666667 0.500000
vt 0.583333 1.000000
vt 0.583333 0.500000
vt 0.500000 1.000000
vt 0.500000 0.500000
vt 0.416667 1.000000
vt 0.416667 0.500000
vt 0.333333 1.000000
vt 0.333333 0.500000
vt 0.250000 1.000000
vt 0.250000 0.500000
vt 0.166667 1.000000
vt 0.166667 0.500000
vt 0.083333 1.000000
vt 0.083333 0.500000
vt 0.000000 1.000000
vt 0.000000 0.500000
vt 0.990000 0.250000
vt 0.630000 0.042154
vt 0.630000 0.457846
vt 1.000000 1.000000
vt 0.510000 0.250000
vt 0.870000 0.042154
vt 0.870000 0.457846
vt 0.000000 0.000000
vt 0.750000 0.490000
vt 0.957846 0.370000
vt 0.957846 0.130000
vt 0.750000 0.010000
vt 0.542154 0.130000
vt 0.542154 0.370000
s 0
f 1/1/1 4/2/1 3/3/1
f 3/3/2 6/4/2 5/5/2
f 5/5/3 8/6/3 7/7/3
f 7/7/4 10/8/4 9/9/4
f 9/9/5 12/10/5 11/11/5
f 11/11/6 14/12/6 13/13/6
f 13/13/7 16/14/7 15/15/7
f 15/15/8 18/16/8 17/17/8
f 17/17/9 20/18/9 19/19/9
f 19/19/10 22/20/10 21/21/10
f 14/12/11 32/14/11 16/14/11
f 21/21/12 24/22/12 23/23/12
f 23/23/13 2/24/13 1/25/13
f 7/26/14 15/27/14 23/28/14
f 36/22/15 38/24/15 26/24/15
f 12/10/16 31/12/16 14/12/16
f 10/8/17 30/10/17 12/10/17
f 8/6/18 29/8/18 10/8/18
f 24/22/19 26/24/19 2/24/19
f 2/29/20 25/2/20 4/2/20
f 6/4/21 28/6/21 8/6/21
f 22/20/22 36/22/22 24/22/22
f 4/2/23 27/4/23 6/4/23
f 20/18/24 35/20/24 22/20/24
f 18/16/25 34/18/25 20/18/25
f 16/14/26 33/16/26 18/16/26
f 41/8/27 54/10/27 42/10/27
f 27/4/15 37/2/15 39/4/15
f 33/16/15 46/18/15 34/18/15
f 30/10/15 43/12/15 31/12/15
f 27/4/15 40/6/15 28/6/15
f 34/18/15 47/20/15 35/20/15
f 31/12/15 44/14/15 32/14/15
f 28/6/15 41/8/15 29/8/15
f 36/22/15 47/20/15 48/22/15
f 26/29/15 37/2/15 25/2/15
f 33/16/15 44/14/15 45/16/15
f 30/10/15 41/8/15 42/10/15
f 53/8/28 66/10/28 54/10/28
f 48/22/29 50/24/29 38/24/29
f 37/2/30 51/4/30 39/4/30
f 45/16/31 58/18/31 46/18/31
f 42/10/32 55/12/32 43/12/32
f 39/4/33 52/6/33 40/6/33
f 47/20/34 58/18/34 59/20/34
f 44/14/35 55/12/35 56/14/35
f 41/8/36 52/6/36 53/8/36
f 47/20/37 60/22/37 48/22/37
f 37/2/38 50/29/38 49/2/38
f 44/14/39 57/16/39 45/16/39
f 68/14/40 81/16/40 69/16/40
f 50/24/41 72/22/41 62/24/41
f 49/2/42 63/4/42 51/4/42
f 58/18/43 69/16/43 70/18/43
f 55/12/44 66/10/44 67/12/44
f 52/6/45 63/4/45 64/6/45
f 58/18/46 71/20/46 59/20/46
f 55/12/47 68/14/47 56/14/47
f 52/6/48 65/8/48 53/8/48
f 59/20/49 72/22/49 60/22/49
f 50/29/50 61/2/50 49/2/50
f 56/14/51 69/16/51 57/16/51
f 74/29/52 85/2/52 73/2/52
f 65/8/53 78/10/53 66/10/53
f 72/22/54 74/24/54 62/24/54
f 61/2/55 75/4/55 63/4/55
f 69/16/56 82/18/56 70/18/56
f 66/10/57 79/12/57 67/12/57
f 63/4/58 76/6/58 64/6/58
f 70/18/59 83/20/59 71/20/59
f 67/12/60 80/14/60 68/14/60
f 64/6/61 77/8/61 65/8/61
f 71/20/62 84/22/62 72/22/62
f 62/29/63 73/2/63 61/2/63
f 80/14/64 93/16/64 81/16/64
f 77/8/65 90/10/65 78/10/65
f 84/22/66 86/24/66 74/24/66
f 73/2/67 87/4/67 75/4/67
f 81/16/68 94/18/68 82/18/68
f 78/10/69 91/12/69 79/12/69
f 75/4/70 88/6/70 76/6/70
f 82/18/71 95/20/71 83/20/71
f 79/12/72 92/14/72 80/14/72
f 76/6/73 89/8/73 77/8/73
f 83/20/74 96/22/74 84/22/74
f 98/3/75 100/29/75 97/1/75
f 101/5/76 99/2/76 98/3/76
f 103/7/77 102/4/77 101/5/77
f 105/9/78 104/6/78 103/7/78
f 107/11/79 106/8/79 105/9/79
f 109/13/80 108/10/80 107/11/80
f 111/15/81 110/12/81 109/13/81
f 113/17/82 112/14/82 111/15/82
f 115/19/83 114/16/83 113/17/83
f 117/21/84 116/18/84 115/19/84
f 119/14/85 110/12/85 112/14/85
f 121/23/86 118/20/86 117/21/86
f 97/25/87 122/22/87 121/23/87
f 115/30/15 107/31/15 98/32/15
f 124/24/88 126/22/88 123/24/88
f 120/12/89 108/10/89 110/12/89
f 127/10/90 106/8/90 108/10/90
f 128/8/91 104/6/91 106/8/91
f 123/24/92 122/22/92 100/24/92
f 130/2/93 100/29/93 99/2/93
f 129/6/94 102/4/94 104/6/94
f 126/22/95 118/20/95 122/22/95
f 131/4/96 99/2/96 102/4/96
f 132/20/97 116/18/97 118/20/97
f 133/18/98 114/16/98 116/18/98
f 134/16/99 112/14/99 114/16/99
f 136/10/100 138/8/100 135/10/100
f 139/4/101 130/2/101 131/4/101
f 141/18/102 134/16/102 133/18/102
f 120/12/103 135/10/103 127/10/103
f 129/6/104 139/4/104 131/4/104
f 145/20/105 133/18/105 132/20/105
f 146/14/106 120/12/106 119/14/106
f 138/8/107 129/6/107 128/8/107
f 125/22/108 132/20/108 126/22/108
f 140/2/109 123/29/109 130/2/109
f 142/16/110 119/14/110 134/16/110
f 135/10/111 128/8/111 127/10/111
f 147/10/112 137/8/112 136/10/112
f 149/24/113 125/22/113 124/24/113
f 151/4/114 140/2/114 139/4/114
f 153/18/115 142/16/115 141/18/115
f 155/12/116 135/10/116 143/12/116
f 156/6/117 139/4/117 144/6/117
f 157/20/118 141/18/118 145/20/118
f 158/14/119 143/12/119 146/14/119
f 137/8/120 144/6/120 138/8/120
f 150/22/121 145/20/121 125/22/121
f 152/2/122 124/29/122 140/2/122
f 154/16/123 146/14/123 142/16/123
f 160/16/124 162/14/124 159/16/124
f 163/24/125 150/22/125 149/24/125
f 165/4/126 152/2/126 151/4/126
f 167/18/127 154/16/127 153/18/127
f 168/12/128 136/10/128 155/12/128
f 169/6/129 151/4/129 156/6/129
f 170/20/130 153/18/130 157/20/130
f 162/14/131 155/12/131 158/14/131
f 148/8/132 156/6/132 137/8/132
f 164/22/133 157/20/133 150/22/133
f 166/2/134 149/29/134 152/2/134
f 159/16/135 158/14/135 154/16/135
f 172/2/136 174/29/136 171/2/136
f 175/10/137 148/8/137 147/10/137
f 174/24/138 164/22/138 163/24/138
f 178/4/139 166/2/139 165/4/139
f 179/18/140 159/16/140 167/18/140
f 180/12/141 147/10/141 168/12/141
f 181/6/142 165/4/142 169/6/142
f 182/20/143 167/18/143 170/20/143
f 161/14/144 168/12/144 162/14/144
f 176/8/145 169/6/145 148/8/145
f 177/22/146 170/20/146 164/22/146
f 171/2/147 163/29/147 166/2/147
f 183/16/148 161/14/148 160/16/148
f 185/10/149 176/8/149 175/10/149
f 173/24/150 177/22/150 174/24/150
f 188/4/151 171/2/151 178/4/151
f 189/18/152 160/16/152 179/18/152
f 190/12/153 175/10/153 180/12/153
f 191/6/154 178/4/154 181/6/154
f 192/20/155 179/18/155 182/20/155
f 184/14/156 180/12/156 161/14/156
f 186/8/157 181/6/157 176/8/157
f 187/22/158 182/20/158 177/22/158
f 92/14/15 183/16/15 93/16/15
f 89/8/15 185/10/15 90/10/15
f 96/22/15 173/24/15 86/24/15
f 85/2/15 188/4/15 87/4/15
f 93/16/15 189/18/15 94/18/15
f 90/10/15 190/12/15 91/12/15
f 87/4/15 191/6/15 88/6/15
f 94/18/15 192/20/15 95/20/15
f 91/12/15 184/14/15 92/14/15
f 88/6/15 186/8/15 89/8/15
f 95/20/15 187/22/15 96/22/15
f 86/29/15 172/2/15 85/2/15
f 127/33/15 130/33/15 133/33/15
f 1/1/1 2/29/1 4/2/1
f 3/3/2 4/2/2 6/4/2
f 5/5/3 6/4/3 8/6/3
f 7/7/4 8/6/4 10/8/4
f 9/9/5 10/8/5 12/10/5
f 11/11/6 12/10/6 14/12/6
f 13/13/7 14/12/7 16/14/7
f 15/15/8 16/14/8 18/16/8
f 17/17/9 18/16/9 20/18/9
f 19/19/10 20/18/10 22/20/10
f 14/12/11 31/12/11 32/14/11
f 21/21/12 22/20/12 24/22/12
f 23/23/13 24/22/13 2/24/13
f 23/28/14 1/34/14 3/32/14
f 3/32/14 5/35/14 7/26/14
f 7/26/14 9/36/14 11/31/14
f 11/31/14 13/37/14 15/27/14
f 15/27/14 17/38/14 19/30/14
f 19/30/14 21/39/14 23/28/14
f 23/28/14 3/32/14 7/26/14
f 7/26/14 11/31/14 15/27/14
f 15/27/14 19/30/14 23/28/14
f 36/22/15 48/22/15 38/24/15
f 12/10/16 30/10/16 31/12/16
f 10/8/17 29/8/17 30/10/17
f 8/6/18 28/6/18 29/8/18
f 24/22/19 36/22/19 26/24/19
f 2/29/20 26/29/20 25/2/20
f 6/4/21 27/4/21 28/6/21
f 22/20/22 35/20/22 36/22/22
f 4/2/23 25/2/23 27/4/23
f 20/18/24 34/18/24 35/20/24
f 18/16/25 33/16/25 34/18/25
f 16/14/26 32/14/26 33/16/26
f 41/8/27 53/8/27 54/10/27
f 27/4/15 25/2/15 37/2/15
f 33/16/15 45/16/15 46/18/15
f 30/10/15 42/10/15 43/12/15
f 27/4/15 39/4/15 40/6/15
f 34/18/15 46/18/15 47/20/15
f 31/12/15 43/12/15 44/14/15
f 28/6/15 40/6/15 41/8/15
f 36/22/15 35/20/15 47/20/15
f 26/29/15 38/29/15 37/2/15
f 33/16/15 32/14/15 44/14/15
f 30/10/15 29/8/15 41/8/15
f 53/8/28 65/8/28 66/10/28
f 48/22/29 60/22/29 50/24/29
f 37/2/30 49/2/30 51/4/30
f 45/16/31 57/16/31 58/18/31
f 42/10/32 54/10/32 55/12/32
f 39/4/33 51/4/33 52/6/33
f 47/20/34 46/18/34 58/18/34
f 44/14/35 43/12/35 55/12/35
f 41/8/36 40/6/36 52/6/36
f 47/20/37 59/20/37 60/22/37
f 37/2/38 38/29/38 50/29/38
f 44/14/39 56/14/39 57/16/39
f 68/14/40 80/14/40 81/16/40
f 50/24/41 60/22/41 72/22/41
f 49/2/42 61/2/42 63/4/42
f 58/18/43 57/16/43 69/16/43
f 55/12/44 54/10/44 66/10/44
f 52/6/45 51/4/45 63/4/45
f 58/18/46 70/18/46 71/20/46
f 55/12/47 67/12/47 68/14/47
f 52/6/48 64/6/48 65/8/48
f 59/20/49 71/20/49 72/22/49
f 50/29/50 62/29/50 61/2/50
f 56/14/51 68/14/51 69/16/51
f 74/29/52 86/29/52 85/2/52
f 65/8/53 77/8/53 78/10/53
f 72/22/54 84/22/54 74/24/54
f 61/2/55 73/2/55 75/4/55
f 69/16/56 81/16/56 82/18/56
f 66/10/57 78/10/57 79/12/57
f 63/4/58 75/4/58 76/6/58
f 70/18/59 82/18/59 83/20/59
f 67/12/60 79/12/60 80/14/60
f 64/6/61 76/6/61 77/8/61
f 71/20/62 83/20/62 84/22/62
f 62/29/63 74/29/63 73/2/63
f 80/14/64 92/14/64 93/16/64
f 77/8/65 89/8/65 90/10/65
f 84/22/66 96/22/66 86/24/66
f 73/2/67 85/2/67 87/4/67
f 81/16/68 93/16/68 94/18/68
f 78/10/69 90/10/69 91/12/69
f 75/4/70 87/4/70 88/6/70
f 82/18/71 94/18/71 95/20/71
f 79/12/72 91/12/72 92/14/72
f 76/6/73 88/6/73 89/8/73
f 83/20/74 95/20/74 96/22/74
f 98/3/75 99/2/75 100/29/75
f 101/5/76 102/4/76 99/2/76
f 103/7/77 104/6/77 102/4/77
f 105/9/78 106/8/78 104/6/78
f 107/11/79 108/10/79 106/8/79
f 109/13/80 110/12/80 108/10/80
f 111/15/81 112/14/81 110/12/81
f 113/17/82 114/16/82 112/14/82
f 115/19/83 116/18/83 114/16/83
f 117/21/84 118/20/84 116/18/84
f 119/14/85 120/12/85 110/12/85
f 121/23/86 122/22/86 118/20/86
f 97/25/87 100/24/87 122/22/87
f 98/32/15 97/34/15 121/28/15
f 121/28/15 117/39/15 115/30/15
f 115/30/15 113/38/15 111/27/15
f 111/27/15 109/37/15 107/31/15
f 107/31/15 105/36/15 103/26/15
f 103/26/15 101/35/15 98/32/15
f 98/32/15 121/28/15 115/30/15
f 115/30/15 111/27/15 107/31/15
f 107/31/15 103/26/15 98/32/15
f 124/24/88 125/22/88 126/22/88
f 120/12/89 127/10/89 108/10/89
f 127/10/90 128/8/90 106/8/90
f 128/8/91 129/6/91 104/6/91
f 123/24/92 126/22/92 122/22/92
f 130/2/93 123/29/93 100/29/93
f 129/6/94 131/4/94 102/4/94
f 126/22/95 132/20/95 118/20/95
f 131/4/96 130/2/96 99/2/96
f 132/20/97 133/18/97 116/18/97
f 133/18/98 134/16/98 114/16/98
f 134/16/99 119/14/99 112/14/99
f 136/10/100 137/8/100 138/8/100
f 139/4/101 140/2/101 130/2/101
f 141/18/102 142/16/102 134/16/102
f 120/12/103 143/12/103 135/10/103
f 129/6/104 144/6/104 139/4/104
f 145/20/105 141/18/105 133/18/105
f 146/14/106 143/12/106 120/12/106
f 138/8/107 144/6/107 129/6/107
f 125/22/108 145/20/108 132/20/108
f 140/2/109 124/29/109 123/29/109
f 142/16/110 146/14/110 119/14/110
f 135/10/111 138/8/111 128/8/111
f 147/10/112 148/8/112 137/8/112
f 149/24/113 150/22/113 125/22/113
f 151/4/114 152/2/114 140/2/114
f 153/18/115 154/16/115 142/16/115
f 155/12/116 136/10/116 135/10/116
f 156/6/117 151/4/117 139/4/117
f 157/20/118 153/18/118 141/18/118
f 158/14/119 155/12/119 143/12/119
f 137/8/120 156/6/120 144/6/120
f 150/22/121 157/20/121 145/20/121
f 152/2/122 149/29/122 124/29/122
f 154/16/123 158/14/123 146/14/123
f 160/16/124 161/14/124 162/14/124
f 163/24/125 164/22/125 150/22/125
f 165/4/126 166/2/126 152/2/126
f 167/18/127 159/16/127 154/16/127
f 168/12/128 147/10/128 136/10/128
f 169/6/129 165/4/129 151/4/129
f 170/20/130 167/18/130 153/18/130
f 162/14/131 168/12/131 155/12/131
f 148/8/132 169/6/132 156/6/132
f 164/22/133 170/20/133 157/20/133
f 166/2/134 163/29/134 149/29/134
f 159/16/135 162/14/135 158/14/135
f 172/2/136 173/29/136 174/29/136
f 175/10/137 176/8/137 148/8/137
f 174/24/138 177/22/138 164/22/138
f 178/4/139 171/2/139 166/2/139
f 179/18/140 160/16/140 159/16/140
f 180/12/141 175/10/141 147/10/141
f 181/6/142 178/4/142 165/4/142
f 182/20/143 179/18/143 167/18/143
f 161/14/144 180/12/144 168/12/144
f 176/8/145 181/6/145 169/6/145
f 177/22/146 182/20/146 170/20/146
f 171/2/147 174/29/147 163/29/147
f 183/16/148 184/14/148 161/14/148
f 185/10/149 186/8/149 176/8/149
f 173/24/150 187/22/150 177/22/150
f 188/4/151 172/2/151 171/2/151
f 189/18/152 183/16/152 160/16/152
f 190/12/153 185/10/153 175/10/153
f 191/6/154 188/4/154 178/4/154
f 192/20/155 189/18/155 179/18/155
f 184/14/156 190/12/156 180/12/156
f 186/8/157 191/6/157 181/6/157
f 187/22/158 192/20/158 182/20/158
f 92/14/15 184/14/15 183/16/15
f 89/8/15 186/8/15 185/10/15
f 96/22/15 187/22/15 173/24/15
f 85/2/15 172/2/15 188/4/15
f 93/16/15 183/16/15 189/18/15
f 90/10/15 185/10/15 190/12/15
f 87/4/15 188/4/15 191/6/15
f 94/18/15 189/18/15 192/20/15
f 91/12/15 190/12/15 184/14/15
f 88/6/15 191/6/15 186/8/15
f 95/20/15 192/20/15 187/22/15
f 86/29/15 173/29/15 172/2/15
f 133/33/15 134/33/15 119/33/15
f 119/33/15 120/33/15 127/33/15
f 127/33/15 128/33/15 129/33/15
f 129/33/15 131/33/15 130/33/15
f 130/33/15 123/33/15 126/33/15
f 126/33/15 132/33/15 133/33/15
f 133/33/15 119/33/15 127/33/15
f 127/33/15 129/33/15 130/33/15
f 130/33/15 126/33/15 133/33/15
