# Blender 3.6.1
# www.blender.org
mtllib chair.mtl
o Chair
v 0.373569 0.519419 -0.373569
v 0.373569 0.519419 0.373569
v -0.373569 0.519419 -0.373569
v -0.373569 0.519419 0.373569
v 0.273179 -0.080378 0.373886
v 0.273179 0.519171 0.373886
v 0.273179 -0.080378 0.273886
v 0.273179 0.519171 0.273886
v 0.373179 -0.080378 0.373886
v 0.373179 0.519171 0.373886
v 0.373179 -0.080378 0.273886
v 0.373179 0.519171 0.273886
v -0.372769 -0.080526 0.373825
v -0.372769 0.519023 0.373825
v -0.372769 -0.080526 0.273825
v -0.372769 0.519023 0.273825
v -0.272769 -0.080526 0.373825
v -0.272769 0.519023 0.373825
v -0.272769 -0.080526 0.273825
v -0.272769 0.519023 0.273825
v 0.271535 1.222884 -0.470859
v 0.271535 0.968592 -0.402839
v 0.271535 1.255619 -0.376369
v 0.271535 0.993444 -0.305976
v 0.371535 0.709252 -0.270935
v 0.371535 0.709252 -0.370935
v 0.271535 0.709252 -0.370935
v 0.271535 0.709252 -0.270935
v 0.271535 -0.080675 -0.270935
v 0.271535 1.504420 -0.462563
v 0.271535 -0.080675 -0.370935
v 0.271535 1.471685 -0.557053
v 0.371535 -0.080675 -0.270935
v 0.371535 1.504420 -0.462563
v 0.371535 -0.080675 -0.370935
v 0.371535 1.471685 -0.557053
v -0.372738 -0.080650 -0.272510
v -0.372738 1.503929 -0.464060
v -0.372738 -0.080650 -0.372510
v -0.372738 1.471194 -0.558550
v -0.272738 -0.080650 -0.272510
v -0.272738 1.503929 -0.464060
v -0.272738 -0.080650 -0.372510
v -0.272738 1.471194 -0.558550
v 0.371535 0.968592 -0.402839
v 0.371535 1.222884 -0.470859
v 0.371535 0.993444 -0.305976
v 0.371535 1.255619 -0.376369
v -0.372738 0.709277 -0.272510
v -0.372738 0.709277 -0.372510
v -0.272738 0.709277 -0.372510
v -0.272738 0.709277 -0.272510
v -0.372738 0.993078 -0.307509
v -0.372738 1.255127 -0.377866
v -0.372738 0.968225 -0.404371
v -0.372738 1.222392 -0.472356
v -0.272738 0.968225 -0.404371
v -0.272738 1.222392 -0.472356
v -0.272738 0.993078 -0.307509
v -0.272738 1.255127 -0.377866
v -0.290676 0.742186 -0.291093
v 0.308873 0.742186 -0.291093
v -0.290676 0.742186 -0.347767
v 0.308873 0.742186 -0.347768
v -0.290676 0.685511 -0.291093
v 0.308873 0.685511 -0.291093
v -0.290676 0.685511 -0.347767
v 0.308873 0.685511 -0.347768
v -0.290676 1.012594 -0.342362
v 0.308873 1.012594 -0.342362
v -0.290676 0.997006 -0.396850
v 0.308873 0.997006 -0.396850
v -0.290676 0.958105 -0.326773
v 0.308873 0.958105 -0.326773
v -0.290676 0.942517 -0.381262
v 0.308873 0.942517 -0.381262
v -0.290676 1.272475 -0.405262
v 0.308873 1.272475 -0.405262
v -0.290676 1.254321 -0.458951
v 0.308873 1.254321 -0.458951
v -0.290676 1.218786 -0.387108
v 0.308873 1.218786 -0.387108
v -0.290676 1.200633 -0.440797
v 0.308873 1.200633 -0.440797
v -0.290676 1.489092 -0.480607
v 0.308873 1.489092 -0.480607
v -0.290676 1.470938 -0.534295
v 0.308873 1.470938 -0.534296
v -0.290676 1.435403 -0.462453
v 0.308873 1.435403 -0.462453
v -0.290676 1.417249 -0.516142
v 0.308873 1.417249 -0.516142
v 0.254757 0.582538 -0.254758
v 0.373569 0.563246 -0.373569
v 0.363798 0.586835 -0.363799
v 0.254757 0.582538 0.254757
v 0.373569 0.563246 0.373569
v 0.363798 0.586835 0.363798
v -0.254757 0.582538 -0.254758
v -0.373569 0.563246 -0.373569
v -0.363798 0.586835 -0.363799
v -0.254757 0.582538 0.254757
v -0.373569 0.563246 0.373569
v -0.363798 0.586835 0.363798
v 0.340210 0.596605 -0.340210
v 0.340210 0.596605 0.340210
v -0.340210 0.596605 -0.340210
v -0.340210 0.596605 0.340210
vn -0.0000 -1.0000 -0.0000
vn -0.0000 1.0000 -0.0000
vn -1.0000 -0.0000 -0.0000
vn -0.0000 -0.0000 -1.0000
vn 1.0000 -0.0000 -0.0000
vn -0.0000 -0.0000 1.0000
vn -0.0000 0.3274 0.9449
vn -0.0000 -0.1221 -0.9925
vn -0.0000 0.1224 0.9925
vn -0.0000 0.2593 0.9658
vn -0.0000 -0.3274 -0.9449
vn -0.0000 -0.2584 -0.9660
vn -0.0000 -0.2751 -0.9614
vn -0.0000 0.2751 0.9614
vn -0.0000 -0.9614 0.2751
vn -0.0000 0.9614 -0.2751
vn -0.0000 -0.3203 -0.9473
vn -0.0000 0.3203 0.9473
vn -0.0000 -0.9473 0.3203
vn -0.0000 0.9473 -0.3203
vn 0.3827 0.9239 -0.0000
vn 0.9239 0.3827 -0.0000
vn -0.0000 0.3827 -0.9239
vn -0.0000 0.9239 -0.3827
vn -0.0000 0.9239 0.3827
vn -0.0000 0.3827 0.9239
vn -0.9239 0.3827 -0.0000
vn -0.3827 0.9239 -0.0000
vn -0.1624 0.9867 -0.0000
vn -0.0000 0.9867 0.1624
vn -0.0000 0.9867 -0.1624
vn 0.1624 0.9867 -0.0000
vn -0.0000 0.9449 -0.3274
vt 0.375000 0.500000
vt 0.375000 0.750000
vt 0.125000 0.750000
vt 0.125000 0.500000
vt 0.835244 0.539756
vt 0.835244 0.710244
vt 0.664756 0.710244
vt 0.664756 0.539756
vt 0.516953 0.000000
vt 0.516953 0.250000
vt 0.375000 0.250000
vt 0.375000 0.000000
vt 0.500000 0.250000
vt 0.500000 0.500000
vt 0.516953 0.500000
vt 0.516953 0.750000
vt 0.625000 0.250000
vt 0.625000 0.500000
vt 0.625000 0.750000
vt 0.625000 1.000000
vt 0.375000 1.000000
vt 0.625000 0.000000
vt 0.583333 1.000000
vt 0.583333 0.750000
vt 0.541667 0.250000
vt 0.541667 0.500000
vt 0.500000 0.750000
vt 0.500000 0.000000
vt 0.500000 1.000000
vt 0.541667 0.750000
vt 0.541667 0.000000
vt 0.541667 1.000000
vt 0.516953 1.000000
vt 0.583333 0.250000
vt 0.583333 0.000000
vt 0.583333 0.500000
vt 0.636162 0.511162
vt 0.636162 0.738838
vt 0.625000 0.746731
vt 0.625000 0.503269
vt 0.625000 0.253269
vt 0.625000 0.496731
vt 0.628269 0.500000
vt 0.871731 0.500000
vt 0.863838 0.511162
vt 0.863838 0.738838
vt 0.871731 0.750000
vt 0.628269 0.750000
vt 0.625000 0.753269
vt 0.625000 0.996731
vt 0.625000 0.003269
vt 0.625000 0.246731
vt 0.875000 0.503269
vt 0.875000 0.746731
s 0
usemtl Material.001
f 1/1/1 2/2/1 4/3/1 3/4/1
f 99/5/2 102/6/2 96/7/2 93/8/2
f 103/9/3 100/10/3 3/11/3 4/12/3
f 27/13/4 26/14/4 35/1/4 31/11/4
f 94/15/5 97/16/5 2/2/5 1/1/5
f 8/17/4 12/18/4 11/1/4 7/11/4
f 10/19/6 6/20/6 5/21/6 9/2/6
f 14/22/3 16/17/3 15/11/3 13/12/3
f 12/18/5 10/19/5 9/2/5 11/1/5
f 35/1/1 33/2/1 29/3/1 31/4/1
f 20/18/5 18/19/5 17/2/5 19/1/5
f 34/19/7 30/20/7 23/23/7 48/24/7
f 16/17/4 20/18/4 19/1/4 15/11/4
f 22/25/8 45/26/8 26/14/8 27/13/8
f 26/14/5 25/27/5 33/2/5 35/1/5
f 6/22/3 8/17/3 7/11/3 5/12/3
f 19/1/1 17/2/1 13/3/1 15/4/1
f 28/28/3 27/13/3 31/11/3 29/12/3
f 25/27/6 28/29/6 29/21/6 33/2/6
f 45/26/5 47/30/5 25/27/5 26/14/5
f 24/31/3 22/25/3 27/13/3 28/28/3
f 47/30/9 24/32/9 28/29/9 25/27/9
f 11/1/1 9/2/1 5/3/1 7/4/1
f 18/19/6 14/20/6 13/21/6 17/2/6
f 97/16/6 103/33/6 4/21/6 2/2/6
f 49/28/3 50/13/3 39/11/3 37/12/3
f 43/1/1 41/2/1 37/3/1 39/4/1
f 51/14/5 52/27/5 41/2/5 43/1/5
f 52/27/6 49/29/6 37/21/6 41/2/6
f 50/13/4 51/14/4 43/1/4 39/11/4
f 48/24/10 23/23/10 24/32/10 47/30/10
f 30/22/3 32/17/3 21/34/3 23/35/3
f 23/35/3 21/34/3 22/25/3 24/31/3
f 36/18/5 34/19/5 48/24/5 46/36/5
f 46/36/5 48/24/5 47/30/5 45/26/5
f 32/17/11 36/18/11 46/36/11 21/34/11
f 21/34/12 46/36/12 45/26/12 22/25/12
f 55/25/8 57/26/8 51/14/8 50/13/8
f 59/30/9 53/32/9 49/29/9 52/27/9
f 57/26/5 59/30/5 52/27/5 51/14/5
f 53/31/3 55/25/3 50/13/3 49/28/3
f 38/22/3 40/17/3 56/34/3 54/35/3
f 54/35/3 56/34/3 55/25/3 53/31/3
f 44/18/5 42/19/5 60/24/5 58/36/5
f 58/36/5 60/24/5 59/30/5 57/26/5
f 42/19/7 38/20/7 54/23/7 60/24/7
f 60/24/10 54/23/10 53/32/10 59/30/10
f 40/17/11 44/18/11 58/36/11 56/34/11
f 56/34/12 58/36/12 57/26/12 55/25/12
f 64/17/4 68/18/4 67/1/4 63/11/4
f 66/19/6 62/20/6 61/21/6 65/2/6
f 68/18/1 66/19/1 65/2/1 67/1/1
f 62/22/2 64/17/2 63/11/2 61/12/2
f 67/1/3 65/2/3 61/3/3 63/4/3
f 72/17/13 76/18/13 75/1/13 71/11/13
f 74/19/14 70/20/14 69/21/14 73/2/14
f 76/18/15 74/19/15 73/2/15 75/1/15
f 70/22/16 72/17/16 71/11/16 69/12/16
f 75/1/3 73/2/3 69/3/3 71/4/3
f 80/17/17 84/18/17 83/1/17 79/11/17
f 82/19/18 78/20/18 77/21/18 81/2/18
f 84/18/19 82/19/19 81/2/19 83/1/19
f 78/22/20 80/17/20 79/11/20 77/12/20
f 83/1/3 81/2/3 77/3/3 79/4/3
f 88/17/17 92/18/17 91/1/17 87/11/17
f 90/19/18 86/20/18 85/21/18 89/2/18
f 92/18/19 90/19/19 89/2/19 91/1/19
f 86/22/20 88/17/20 87/11/20 85/12/20
f 91/1/3 89/2/3 85/3/3 87/4/3
f 105/37/21 106/38/21 98/39/21 95/40/21
f 95/40/22 98/39/22 97/16/22 94/15/22
f 94/15/23 100/10/23 101/41/23 95/42/23
f 95/43/24 101/44/24 107/45/24 105/37/24
f 106/38/25 108/46/25 104/47/25 98/48/25
f 98/49/26 104/50/26 103/33/26 97/16/26
f 100/10/27 103/9/27 104/51/27 101/52/27
f 101/53/28 104/54/28 108/46/28 107/45/28
f 100/10/4 94/15/4 1/1/4 3/11/4
f 93/8/29 96/7/29 106/38/29 105/37/29
f 99/5/30 93/8/30 105/37/30 107/45/30
f 96/7/31 102/6/31 108/46/31 106/38/31
f 102/6/32 99/5/32 107/45/32 108/46/32
f 32/17/33 30/20/33 34/19/33 36/18/33
f 40/17/33 38/20/33 42/19/33 44/18/33
