# Blender 3.6.1
# www.blender.org
mtllib fence.mtl
o Fence
v 0.114245 2.000000 -0.125754
v 0.114245 0.000000 -0.125754
v 0.114245 2.000000 0.074246
v 0.114245 0.000000 0.074246
v -0.085755 2.000000 -0.125754
v -0.085755 0.000000 -0.125754
v -0.085755 2.000000 0.074246
v -0.085755 0.000000 0.074246
v 0.114245 2.000000 -0.125754
v -0.085755 2.000000 -0.125754
v -0.085755 2.000000 0.074246
v 0.114245 2.000000 0.074246
v 0.013099 2.107674 -0.026900
v 0.015390 2.107674 -0.026900
v 0.015390 2.107674 -0.024609
v 0.013099 2.107674 -0.024609
v 1.414245 1.530919 0.031167
v 0.014245 1.530919 0.031167
v 0.014245 1.530919 -0.082676
v 1.414245 1.530919 -0.082676
v 1.414245 1.669081 -0.082676
v 0.014245 1.669081 -0.082676
v 1.414245 1.669081 0.031167
v 0.014245 1.669081 0.031167
v 1.414245 0.330919 0.031167
v 0.014245 0.330919 0.031167
v 0.014245 0.330919 -0.082676
v 1.414245 0.330919 -0.082676
v 1.414245 0.469081 -0.082676
v 0.014245 0.469081 -0.082676
v 1.414245 0.469081 0.031167
v 0.014245 0.469081 0.031167
v 1.614245 2.000000 -0.125754
v 1.614245 0.000000 -0.125754
v 1.614245 2.000000 0.074246
v 1.614245 0.000000 0.074246
v 1.414245 2.000000 -0.125754
v 1.414245 0.000000 -0.125754
v 1.414245 2.000000 0.074246
v 1.414245 0.000000 0.074246
v 1.614245 2.000000 -0.125754
v 1.414245 2.000000 -0.125754
v 1.414245 2.000000 0.074246
v 1.614245 2.000000 0.074246
v 1.513099 2.107674 -0.026900
v 1.515390 2.107674 -0.026900
v 1.515390 2.107674 -0.024609
v 1.513099 2.107674 -0.024609
v 2.914244 1.530919 0.031167
v 1.514245 1.530919 0.031167
v 1.514245 1.530919 -0.082676
v 2.914244 1.530919 -0.082676
v 2.914244 1.669081 -0.082676
v 1.514245 1.669081 -0.082676
v 2.914244 1.669081 0.031167
v 1.514245 1.669081 0.031167
v 2.914244 0.330919 0.031167
v 1.514245 0.330919 0.031167
v 1.514245 0.330919 -0.082676
v 2.914244 0.330919 -0.082676
v 2.914244 0.469081 -0.082676
v 1.514245 0.469081 -0.082676
v 2.914244 0.469081 0.031167
v 1.514245 0.469081 0.031167
v 3.114245 2.000000 -0.125754
v 3.114245 0.000000 -0.125754
v 3.114245 2.000000 0.074246
v 3.114245 0.000000 0.074246
v 2.914244 2.000000 -0.125754
v 2.914244 0.000000 -0.125754
v 2.914244 2.000000 0.074246
v 2.914244 0.000000 0.074246
v 3.114245 2.000000 -0.125754
v 2.914244 2.000000 -0.125754
v 2.914244 2.000000 0.074246
v 3.114245 2.000000 0.074246
v 3.013099 2.107674 -0.026900
v 3.015390 2.107674 -0.026900
v 3.015390 2.107674 -0.024609
v 3.013099 2.107674 -0.024609
v 4.414245 1.530919 0.031167
v 3.014245 1.530919 0.031167
v 3.014245 1.530919 -0.082676
v 4.414245 1.530919 -0.082676
v 4.414245 1.669081 -0.082676
v 3.014245 1.669081 -0.082676
v 4.414245 1.669081 0.031167
v 3.014245 1.669081 0.031167
v 4.414245 0.330919 0.031167
v 3.014245 0.330919 0.031167
v 3.014245 0.330919 -0.082676
v 4.414245 0.330919 -0.082676
v 4.414245 0.469081 -0.082676
v 3.014245 0.469081 -0.082676
v 4.414245 0.469081 0.031167
v 3.014245 0.469081 0.031167
v 4.614244 2.000000 -0.125754
v 4.614244 0.000000 -0.125754
v 4.614244 2.000000 0.074246
v 4.614244 0.000000 0.074246
v 4.414245 2.000000 -0.125754
v 4.414245 0.000000 -0.125754
v 4.414245 2.000000 0.074246
v 4.414245 0.000000 0.074246
v 4.614244 2.000000 -0.125754
v 4.414245 2.000000 -0.125754
v 4.414245 2.000000 0.074246
v 4.614244 2.000000 0.074246
v 4.513099 2.107674 -0.026900
v 4.515390 2.107674 -0.026900
v 4.515390 2.107674 -0.024609
v 4.513099 2.107674 -0.024609
v 5.914245 1.530919 0.031167
v 4.514245 1.530919 0.031167
v 4.514245 1.530919 -0.082676
v 5.914245 1.530919 -0.082676
v 5.914245 1.669081 -0.082676
v 4.514245 1.669081 -0.082676
v 5.914245 1.669081 0.031167
v 4.514245 1.669081 0.031167
v 5.914245 0.330919 0.031167
v 4.514245 0.330919 0.031167
v 4.514245 0.330919 -0.082676
v 5.914245 0.330919 -0.082676
v 5.914245 0.469081 -0.082676
v 4.514245 0.469081 -0.082676
v 5.914245 0.469081 0.031167
v 4.514245 0.469081 0.031167
vn -0.0000 -0.0000 1.0000
vn -1.0000 -0.0000 -0.0000
vn -0.0000 -1.0000 -0.0000
vn 1.0000 -0.0000 -0.0000
vn -0.0000 -0.0000 -1.0000
vn -0.0000 1.0000 -0.0000
vn -0.7366 0.6763 -0.0000
vn -0.0000 0.6763 0.7366
vn -0.0000 0.6763 -0.7366
vn 0.7366 0.6763 -0.0000
vn -0.0000 0.6763 0.7367
vt 0.625000 0.750000
vt 0.375000 1.000000
vt 0.375000 0.750000
vt 0.625000 0.000000
vt 0.375000 0.250000
vt 0.375000 0.000000
vt 0.375000 0.500000
vt 0.125000 0.750000
vt 0.125000 0.500000
vt 0.625000 0.500000
vt 0.625000 0.250000
vt 0.875000 0.500000
vt 0.875000 0.750000
vt 0.751432 0.623568
vt 0.751432 0.626432
vt 0.748568 0.626432
vt 0.748568 0.623568
vt 0.625000 1.000000
s 0
usemtl Material
f 3/1/1 8/2/1 4/3/1
f 7/4/2 6/5/2 8/6/2
f 2/7/3 8/8/3 6/9/3
f 1/10/4 4/3/4 2/7/4
f 5/11/5 2/7/5 6/5/5
f 1/10/6 10/12/6 9/10/6
f 5/12/6 11/13/6 10/12/6
f 7/13/6 12/1/6 11/13/6
f 3/1/6 9/10/6 12/1/6
f 13/14/7 11/13/7 16/15/7
f 16/15/8 12/1/8 15/16/8
f 17/1/1 24/2/1 18/3/1
f 14/17/9 10/12/9 13/14/9
f 15/16/6 13/14/6 16/15/6
f 21/11/5 19/7/5 22/5/5
f 20/10/4 23/4/4 17/1/4
f 20/10/3 18/3/3 19/7/3
f 23/4/6 22/5/6 24/6/6
f 15/16/10 9/10/10 14/17/10
f 19/7/2 24/2/2 22/5/2
f 25/1/1 32/2/1 26/3/1
f 29/11/5 27/7/5 30/5/5
f 28/10/4 31/4/4 25/1/4
f 28/10/3 26/3/3 27/7/3
f 31/4/6 30/5/6 32/6/6
f 27/7/2 32/2/2 30/5/2
f 35/1/1 40/2/1 36/3/1
f 39/4/2 38/5/2 40/6/2
f 34/7/3 40/8/3 38/9/3
f 33/10/4 36/3/4 34/7/4
f 37/11/5 34/7/5 38/5/5
f 33/10/6 42/12/6 41/10/6
f 37/12/6 43/13/6 42/12/6
f 39/13/6 44/1/6 43/13/6
f 35/1/6 41/10/6 44/1/6
f 48/15/7 42/12/7 43/13/7
f 48/15/11 44/1/11 47/16/11
f 49/1/1 56/2/1 50/3/1
f 46/17/9 42/12/9 45/14/9
f 47/16/6 45/14/6 48/15/6
f 53/11/5 51/7/5 54/5/5
f 52/10/4 55/4/4 49/1/4
f 52/10/3 50/3/3 51/7/3
f 55/4/6 54/5/6 56/6/6
f 46/17/10 44/1/10 41/10/10
f 51/7/2 56/2/2 54/5/2
f 57/1/1 64/2/1 58/3/1
f 61/11/5 59/7/5 62/5/5
f 60/10/4 63/4/4 57/1/4
f 60/10/3 58/3/3 59/7/3
f 63/4/6 62/5/6 64/6/6
f 59/7/2 64/2/2 62/5/2
f 67/1/1 72/2/1 68/3/1
f 71/4/2 70/5/2 72/6/2
f 66/7/3 72/8/3 70/9/3
f 65/10/4 68/3/4 66/7/4
f 69/11/5 66/7/5 70/5/5
f 65/10/6 74/12/6 73/10/6
f 69/12/6 75/13/6 74/12/6
f 71/13/6 76/1/6 75/13/6
f 67/1/6 73/10/6 76/1/6
f 77/14/7 75/13/7 80/15/7
f 79/16/8 75/13/8 76/1/8
f 81/1/1 88/2/1 82/3/1
f 77/14/9 73/10/9 74/12/9
f 79/16/6 77/14/6 80/15/6
f 85/11/5 83/7/5 86/5/5
f 84/10/4 87/4/4 81/1/4
f 84/10/3 82/3/3 83/7/3
f 87/4/6 86/5/6 88/6/6
f 78/17/10 76/1/10 73/10/10
f 83/7/2 88/2/2 86/5/2
f 89/1/1 96/2/1 90/3/1
f 93/11/5 91/7/5 94/5/5
f 92/10/4 95/4/4 89/1/4
f 92/10/3 90/3/3 91/7/3
f 95/4/6 94/5/6 96/6/6
f 91/7/2 96/2/2 94/5/2
f 99/1/1 104/2/1 100/3/1
f 103/4/2 102/5/2 104/6/2
f 98/7/3 104/8/3 102/9/3
f 97/10/4 100/3/4 98/7/4
f 101/11/5 98/7/5 102/5/5
f 97/10/6 106/12/6 105/10/6
f 101/12/6 107/13/6 106/12/6
f 103/13/6 108/1/6 107/13/6
f 99/1/6 105/10/6 108/1/6
f 112/15/7 106/12/7 107/13/7
f 112/15/8 108/1/8 111/16/8
f 113/1/1 120/2/1 114/3/1
f 110/17/9 106/12/9 109/14/9
f 111/16/6 109/14/6 112/15/6
f 117/11/5 115/7/5 118/5/5
f 116/10/4 119/4/4 113/1/4
f 116/10/3 114/3/3 115/7/3
f 119/4/6 118/5/6 120/6/6
f 110/17/10 108/1/10 105/10/10
f 115/7/2 120/2/2 118/5/2
f 121/1/1 128/2/1 122/3/1
f 125/11/5 123/7/5 126/5/5
f 124/10/4 127/4/4 121/1/4
f 124/10/3 122/3/3 123/7/3
f 127/4/6 126/5/6 128/6/6
f 123/7/2 128/2/2 126/5/2
f 3/1/1 7/18/1 8/2/1
f 7/4/2 5/11/2 6/5/2
f 2/7/3 4/3/3 8/8/3
f 1/10/4 3/1/4 4/3/4
f 5/11/5 1/10/5 2/7/5
f 1/10/6 5/12/6 10/12/6
f 5/12/6 7/13/6 11/13/6
f 7/13/6 3/1/6 12/1/6
f 3/1/6 1/10/6 9/10/6
f 13/14/7 10/12/7 11/13/7
f 16/15/8 11/13/8 12/1/8
f 17/1/1 23/18/1 24/2/1
f 14/17/9 9/10/9 10/12/9
f 15/16/6 14/17/6 13/14/6
f 21/11/5 20/10/5 19/7/5
f 20/10/4 21/11/4 23/4/4
f 20/10/3 17/1/3 18/3/3
f 23/4/6 21/11/6 22/5/6
f 15/16/10 12/1/10 9/10/10
f 19/7/2 18/3/2 24/2/2
f 25/1/1 31/18/1 32/2/1
f 29/11/5 28/10/5 27/7/5
f 28/10/4 29/11/4 31/4/4
f 28/10/3 25/1/3 26/3/3
f 31/4/6 29/11/6 30/5/6
f 27/7/2 26/3/2 32/2/2
f 35/1/1 39/18/1 40/2/1
f 39/4/2 37/11/2 38/5/2
f 34/7/3 36/3/3 40/8/3
f 33/10/4 35/1/4 36/3/4
f 37/11/5 33/10/5 34/7/5
f 33/10/6 37/12/6 42/12/6
f 37/12/6 39/13/6 43/13/6
f 39/13/6 35/1/6 44/1/6
f 35/1/6 33/10/6 41/10/6
f 48/15/7 45/14/7 42/12/7
f 48/15/8 43/13/8 44/1/8
f 49/1/1 55/18/1 56/2/1
f 46/17/9 41/10/9 42/12/9
f 47/16/6 46/17/6 45/14/6
f 53/11/5 52/10/5 51/7/5
f 52/10/4 53/11/4 55/4/4
f 52/10/3 49/1/3 50/3/3
f 55/4/6 53/11/6 54/5/6
f 46/17/10 47/16/10 44/1/10
f 51/7/2 50/3/2 56/2/2
f 57/1/1 63/18/1 64/2/1
f 61/11/5 60/10/5 59/7/5
f 60/10/4 61/11/4 63/4/4
f 60/10/3 57/1/3 58/3/3
f 63/4/6 61/11/6 62/5/6
f 59/7/2 58/3/2 64/2/2
f 67/1/1 71/18/1 72/2/1
f 71/4/2 69/11/2 70/5/2
f 66/7/3 68/3/3 72/8/3
f 65/10/4 67/1/4 68/3/4
f 69/11/5 65/10/5 66/7/5
f 65/10/6 69/12/6 74/12/6
f 69/12/6 71/13/6 75/13/6
f 71/13/6 67/1/6 76/1/6
f 67/1/6 65/10/6 73/10/6
f 77/14/7 74/12/7 75/13/7
f 79/16/8 80/15/8 75/13/8
f 81/1/1 87/18/1 88/2/1
f 77/14/9 78/17/9 73/10/9
f 79/16/6 78/17/6 77/14/6
f 85/11/5 84/10/5 83/7/5
f 84/10/4 85/11/4 87/4/4
f 84/10/3 81/1/3 82/3/3
f 87/4/6 85/11/6 86/5/6
f 78/17/10 79/16/10 76/1/10
f 83/7/2 82/3/2 88/2/2
f 89/1/1 95/18/1 96/2/1
f 93/11/5 92/10/5 91/7/5
f 92/10/4 93/11/4 95/4/4
f 92/10/3 89/1/3 90/3/3
f 95/4/6 93/11/6 94/5/6
f 91/7/2 90/3/2 96/2/2
f 99/1/1 103/18/1 104/2/1
f 103/4/2 101/11/2 102/5/2
f 98/7/3 100/3/3 104/8/3
f 97/10/4 99/1/4 100/3/4
f 101/11/5 97/10/5 98/7/5
f 97/10/6 101/12/6 106/12/6
f 101/12/6 103/13/6 107/13/6
f 103/13/6 99/1/6 108/1/6
f 99/1/6 97/10/6 105/10/6
f 112/15/7 109/14/7 106/12/7
f 112/15/8 107/13/8 108/1/8
f 113/1/1 119/18/1 120/2/1
f 110/17/9 105/10/9 106/12/9
f 111/16/6 110/17/6 109/14/6
f 117/11/5 116/10/5 115/7/5
f 116/10/4 117/11/4 119/4/4
f 116/10/3 113/1/3 114/3/3
f 119/4/6 117/11/6 118/5/6
f 110/17/10 111/16/10 108/1/10
f 115/7/2 114/3/2 120/2/2
f 121/1/1 127/18/1 128/2/1
f 125/11/5 124/10/5 123/7/5
f 124/10/4 125/11/4 127/4/4
f 124/10/3 121/1/3 122/3/3
f 127/4/6 125/11/6 126/5/6
f 123/7/2 122/3/2 128/2/2
o Fence_Post
v 6.073911 1.963481 -0.162634
v 6.073911 -0.036519 -0.162634
v 6.073911 1.963481 0.037366
v 6.073911 -0.036519 0.037366
v 5.873911 1.963481 -0.162634
v 5.873911 -0.036519 -0.162634
v 5.873911 1.963481 0.037366
v 5.873911 -0.036519 0.037366
v 6.073911 1.963481 -0.162634
v 5.873911 1.963481 -0.162634
v 5.873911 1.963481 0.037366
v 6.073911 1.963481 0.037366
v 5.972765 2.071155 -0.063780
v 5.975056 2.071155 -0.063780
v 5.975056 2.071155 -0.061489
v 5.972765 2.071155 -0.061489
vn -0.0000 -0.0000 1.0000
vn -1.0000 -0.0000 -0.0000
vn -0.0000 -1.0000 -0.0000
vn 1.0000 -0.0000 -0.0000
vn -0.0000 -0.0000 -1.0000
vn -0.0000 1.0000 -0.0000
vn -0.7366 0.6763 -0.0000
vn -0.0000 0.6764 0.7366
vn -0.0000 0.6763 -0.7366
vn 0.7366 0.6763 -0.0000
vn -0.0000 0.6763 0.7366
vt 0.625000 0.750000
vt 0.375000 1.000000
vt 0.375000 0.750000
vt 0.625000 0.000000
vt 0.375000 0.250000
vt 0.375000 0.000000
vt 0.375000 0.500000
vt 0.125000 0.750000
vt 0.125000 0.500000
vt 0.625000 0.500000
vt 0.625000 0.250000
vt 0.875000 0.500000
vt 0.875000 0.750000
vt 0.751432 0.623568
vt 0.751432 0.626432
vt 0.748568 0.626432
vt 0.748568 0.623568
vt 0.625000 1.000000
s 0
usemtl Material
f 131/19/12 136/20/12 132/21/12
f 135/22/13 134/23/13 136/24/13
f 130/25/14 136/26/14 134/27/14
f 129/28/15 132/21/15 130/25/15
f 133/29/16 130/25/16 134/23/16
f 129/28/17 138/30/17 137/28/17
f 133/30/17 139/31/17 138/30/17
f 135/31/17 140/19/17 139/31/17
f 131/19/17 137/28/17 140/19/17
f 141/32/18 139/31/18 144/33/18
f 144/33/19 140/19/19 143/34/19
f 142/35/20 138/30/20 141/32/20
f 143/34/17 141/32/17 144/33/17
f 143/34/21 137/28/21 142/35/21
f 131/19/12 135/36/12 136/20/12
f 135/22/13 133/29/13 134/23/13
f 130/25/14 132/21/14 136/26/14
f 129/28/15 131/19/15 132/21/15
f 133/29/16 129/28/16 130/25/16
f 129/28/17 133/30/17 138/30/17
f 133/30/17 135/31/17 139/31/17
f 135/31/17 131/19/17 140/19/17
f 131/19/17 129/28/17 137/28/17
f 141/32/18 138/30/18 139/31/18
f 144/33/22 139/31/22 140/19/22
f 142/35/20 137/28/20 138/30/20
f 143/34/17 142/35/17 141/32/17
f 143/34/21 140/19/21 137/28/21
