# Blender 3.6.1
# www.blender.org
mtllib house.mtl
o House
v 4.017101 2.000000 3.932029
v 4.017101 0.000000 3.932029
v -3.982899 2.000000 3.932029
v -3.982899 0.000000 3.932029
v 4.017101 2.000000 -4.067970
v 4.017101 0.000000 -4.067970
v -3.982899 2.000000 -4.067971
v -3.982899 0.000000 -4.067971
v -3.982899 3.000000 3.932029
v -3.982899 3.000000 -4.067971
v 4.017101 3.000000 3.932029
v 4.017101 3.000000 -4.067970
v 0.017101 2.000000 3.932029
v 0.017101 0.000000 3.932029
v 0.017101 5.000000 3.932029
v 0.017102 5.000000 -4.067971
v -4.879415 2.589889 4.828544
v -4.879414 2.589889 -4.964486
v 4.913616 2.589889 4.828545
v 4.913616 2.589889 -4.964485
v 0.017101 5.038146 4.828544
v 0.017102 5.038146 -4.964486
v 0.017101 4.814539 4.828544
v -4.789971 2.411003 4.828544
v -4.789970 2.411003 -4.964486
v 0.017102 4.814539 -4.964486
v 4.824173 2.411003 4.828545
v 4.824174 2.411003 -4.964485
v -2.228820 5.162521 -3.346545
v -1.665103 5.162521 -3.346545
v -2.228821 5.162521 -2.782828
v -1.665103 5.162521 -2.782828
v -2.359978 5.162521 -3.477703
v -1.533946 5.162521 -3.477703
v -1.533946 5.162521 -2.651671
v -2.359978 5.162521 -2.651671
v -2.228820 5.090419 -3.346545
v -1.665103 5.090419 -3.346545
v -1.665103 5.090419 -2.782828
v -2.228821 5.090419 -2.782828
v -2.228820 4.386952 -3.346545
v -1.665103 4.386952 -3.346545
v -1.665103 4.386952 -2.782828
v -2.228821 4.386952 -2.782828
v -2.359978 4.760119 -3.477703
v -1.533946 4.760119 -3.477703
v -1.533946 4.760119 -2.651671
v -2.359978 4.760119 -2.651671
v -1.576533 4.680850 -3.435116
v -1.576533 4.680850 -2.694258
v -2.317391 4.680850 -2.694258
v -2.317390 4.680850 -3.435116
v -0.700864 0.000000 -4.067971
v 0.735067 0.000000 -4.067971
v -2.317390 3.829045 -3.435116
v 0.735067 2.000000 -4.067971
v -0.700864 2.000000 -4.067971
v 0.017102 5.000000 -4.067971
v -0.700864 0.000000 -3.655720
v 0.735067 0.000000 -3.655720
v 0.735067 2.000000 -3.655720
v -0.700864 2.000000 -3.655720
v -1.576533 3.727343 -3.435116
v -2.317391 3.652815 -2.694258
v -1.576533 4.017074 -3.435116
v -1.576533 4.015760 -2.694258
v -2.305199 3.652815 -2.694258
v -1.598729 4.006624 -3.451417
v -1.618782 3.996597 -3.453270
v -1.448228 4.081874 -3.384042
v -2.321225 3.645376 -3.432861
v -2.317391 3.829045 -2.694258
v -0.700864 0.022934 -4.455681
v -2.186134 3.936528 -2.793402
v -2.186134 3.936528 -3.302687
v -0.700864 0.234440 -3.678914
v -0.700864 0.022934 -3.678914
v -1.710801 4.174195 -3.302687
v 0.735067 0.234440 -3.678914
v -1.710801 4.174195 -2.793402
v 0.735067 0.022934 -3.678914
v 0.735067 0.022934 -4.455681
v -0.700864 0.234440 -4.455681
v 0.735067 0.234440 -4.455681
v 4.017101 1.552374 0.373928
v 4.017101 0.447627 0.373928
v 4.017101 1.552374 -0.509869
v 4.017101 0.447627 -0.509869
v 4.131303 0.569393 -0.388103
v 4.131302 0.569393 0.252162
v 4.131302 1.430607 0.252162
v 4.131303 1.430607 -0.388103
v 4.131303 0.447627 -0.509869
v 4.131302 0.447627 0.373928
v 4.131302 1.552374 0.373928
v 4.131303 1.552374 -0.509869
v 4.046210 0.569393 -0.388103
v 4.046210 0.569393 0.252162
v 4.046210 1.430607 0.252162
v 4.046210 1.430607 -0.388103
v 4.017101 1.552374 2.850269
v 4.017101 0.447627 2.850269
v 4.017101 1.552374 1.966471
v 4.017101 0.447627 1.966471
v 4.131303 0.569393 2.088237
v 4.131302 0.569393 2.728502
v 4.131302 1.430607 2.728502
v 4.131303 1.430607 2.088237
v 4.131303 0.447627 1.966471
v 4.131302 0.447627 2.850269
v 4.131302 1.552374 2.850269
v 4.131303 1.552374 1.966471
v 4.046210 0.569393 2.088237
v 4.046210 0.569393 2.728502
v 4.046210 1.430607 2.728502
v 4.046210 1.430607 2.088237
v 4.017101 1.552374 -2.211608
v 4.017101 0.447627 -2.211608
v 4.017101 1.552374 -3.095405
v 4.017101 0.447627 -3.095405
v 4.131303 0.569393 -2.973639
v 4.131302 0.569393 -2.333375
v 4.131302 1.430607 -2.333375
v 4.131303 1.430607 -2.973639
v 4.131303 0.447627 -3.095405
v 4.131302 0.447627 -2.211608
v 4.131302 1.552374 -2.211608
v 4.131303 1.552374 -3.095405
v 4.046210 0.569393 -2.973639
v 4.046210 0.569393 -2.333375
v 4.046210 1.430607 -2.333375
v 4.046210 1.430607 -2.973639
v -4.017101 1.552374 -0.373928
v -4.017101 0.447627 -0.373928
v -4.017101 1.552374 0.509870
v -4.017101 0.447627 0.509870
v -4.131303 0.569393 0.388103
v -4.131302 0.569393 -0.252161
v -4.131302 1.430607 -0.252161
v -4.131303 1.430607 0.388103
v -4.131303 0.447627 0.509870
v -4.131302 0.447627 -0.373928
v -4.131302 1.552374 -0.373928
v -4.131303 1.552374 0.509870
v -4.046210 0.569393 0.388103
v -4.046210 0.569393 -0.252161
v -4.046210 1.430607 -0.252161
v -4.046210 1.430607 0.388103
v -4.017102 1.552374 -2.850268
v -4.017102 0.447627 -2.850268
v -4.017101 1.552374 -1.966470
v -4.017101 0.447627 -1.966470
v -4.131303 0.569393 -2.088237
v -4.131303 0.569393 -2.728501
v -4.131303 1.430607 -2.728501
v -4.131303 1.430607 -2.088237
v -4.131303 0.447627 -1.966470
v -4.131303 0.447627 -2.850268
v -4.131303 1.552374 -2.850268
v -4.131303 1.552374 -1.966470
v -4.046210 0.569393 -2.088237
v -4.046211 0.569393 -2.728501
v -4.046211 1.430607 -2.728501
v -4.046210 1.430607 -2.088237
v -4.017101 1.552374 2.211608
v -4.017101 0.447627 2.211608
v -4.017101 1.552374 3.095406
v -4.017101 0.447627 3.095406
v -4.131303 0.569393 2.973640
v -4.131302 0.569393 2.333375
v -4.131302 1.430607 2.333375
v -4.131303 1.430607 2.973640
v -4.131303 0.447627 3.095406
v -4.131302 0.447627 2.211608
v -4.131302 1.552374 2.211608
v -4.131303 1.552374 3.095406
v -4.046210 0.569393 2.973640
v -4.046210 0.569393 2.333375
v -4.046210 1.430607 2.333375
v -4.046210 1.430607 2.973640
v 3.031058 1.569938 -4.040979
v 3.031058 0.465191 -4.040979
v 2.147260 1.569938 -4.040979
v 2.147260 0.465191 -4.040979
v 2.269028 0.586957 -4.155181
v 2.909292 0.586957 -4.155181
v 2.909292 1.448171 -4.155181
v 2.269028 1.448171 -4.155181
v 2.147261 0.465191 -4.155181
v 3.031058 0.465191 -4.155181
v 3.031058 1.569938 -4.155181
v 2.147261 1.569938 -4.155181
v 2.269028 0.586957 -4.070088
v 2.909292 0.586957 -4.070088
v 2.909292 1.448171 -4.070088
v 2.269028 1.448171 -4.070088
vn -1.0000 -0.0000 -0.0000
vn -0.0000 -0.0000 -1.0000
vn -0.0000 -0.0000 1.0000
vn 1.0000 -0.0000 -0.0000
vn 0.4472 0.8944 -0.0000
vn 0.4472 -0.8944 -0.0000
vn -0.4472 -0.8944 -0.0000
vn 0.8944 -0.4472 -0.0000
vn -0.8944 -0.4472 -0.0000
vn -0.0000 1.0000 -0.0000
vn -0.8809 -0.4733 -0.0000
vn -0.0000 -0.4733 0.8809
vn 0.8809 -0.4733 -0.0000
vn -0.0000 -0.4733 -0.8809
vn -0.0000 -1.0000 -0.0000
vn -0.4472 0.8944 -0.0000
vt 0.625000 1.000000
vt 0.625000 0.750000
vt 0.375000 0.750000
vt 0.375000 1.000000
vt 0.625000 0.250000
vt 0.625000 0.147436
vt 0.625000 0.125000
vt 0.375000 0.147436
vt 0.375000 0.250000
vt 0.375000 0.625000
vt 0.625000 0.625000
vt 0.625000 0.500000
vt 0.375000 0.500000
vt 0.625000 0.102564
vt 0.625000 0.000000
vt 0.375000 0.102564
vt 0.875000 0.500000
vt 0.875000 0.625000
vt 0.834654 0.663103
vt 0.836374 0.667017
vt 0.836421 0.667538
vt 0.875000 0.750000
vt 0.574700 0.000000
vt 0.574700 0.250000
vt 0.574700 0.500000
vt 0.574700 0.750000
vt 0.574700 1.000000
vt 0.664695 0.539695
vt 0.835305 0.539695
vt 0.835305 0.710305
vt 0.664695 0.710305
vt 0.564791 0.750000
vt 0.564791 1.000000
vt 0.564791 0.500000
vt 0.564791 0.250000
vt 0.564791 0.000000
vt 0.835900 0.685804
vt 0.458315 0.750000
vt 0.458315 1.000000
vt 0.625000 0.102564
vt 0.375000 0.000000
vt 0.436287 0.745886
vt 0.481655 0.500000
vt 0.436287 0.750000
vt 0.481819 0.250000
vt 0.819576 0.681245
vt 0.832577 0.681245
vt 0.819576 0.669111
vt 0.832577 0.669111
vt 0.597445 0.284444
vt 0.597445 0.465556
vt 0.402555 0.284444
vt 0.402555 0.465556
s 0
usemtl Material
f 7/1/1 3/2/1 9/2/1 10/1/1
f 4/3/1 3/2/1 7/1/1 8/4/1
f 5/5/2 56/6/2 58/7/2 16/7/2 12/5/2
f 54/8/2 56/6/2 5/5/2 6/9/2
f 14/10/3 13/11/3 3/2/3 4/3/3
f 6/9/4 5/5/4 1/12/4 2/13/4
f 13/11/3 1/12/3 11/12/3 15/11/3
f 1/12/4 5/5/4 12/5/4 11/12/4
f 3/2/3 13/11/3 15/11/3 9/2/3
f 58/7/2 57/14/2 7/15/2 10/15/2 16/7/2
f 2/13/3 1/12/3 13/11/3 14/10/3
f 79/6/3 76/14/3 77/16/3 81/8/3
f 19/12/5 20/17/5 22/18/5 21/11/5
f 23/11/6 70/19/6 68/20/6 69/21/6 26/18/6
f 27/12/7 23/11/7 26/18/7 28/17/7
f 20/17/8 19/12/8 27/12/8 28/17/8
f 21/11/3 17/2/3 24/2/3 23/11/3
f 19/12/3 21/11/3 23/11/3 27/12/3
f 22/18/2 20/17/2 28/17/2 26/18/2
f 17/2/9 18/22/9 25/22/9 24/2/9
f 18/22/2 22/18/2 26/18/2 25/22/2
f 45/23/2 33/15/2 34/5/2 46/24/2
f 46/24/4 34/5/4 35/12/4 47/25/4
f 47/25/3 35/12/3 36/2/3 48/26/3
f 48/26/1 36/2/1 33/1/1 45/27/1
f 32/28/1 30/29/1 38/29/1 39/28/1
f 29/30/10 30/29/10 34/17/10 33/22/10
f 30/29/10 32/28/10 35/12/10 34/17/10
f 32/28/10 31/31/10 36/2/10 35/12/10
f 31/31/10 29/30/10 33/22/10 36/2/10
f 40/31/2 39/28/2 43/28/2 44/31/2
f 31/31/2 32/28/2 39/28/2 40/31/2
f 30/29/3 29/30/3 37/30/3 38/29/3
f 29/30/4 31/31/4 40/31/4 37/30/4
f 38/29/3 37/30/3 41/30/3 42/29/3
f 37/30/4 40/31/4 44/31/4 41/30/4
f 39/28/1 38/29/1 42/29/1 43/28/1
f 51/32/11 48/26/11 45/27/11 52/33/11
f 50/34/12 47/25/12 48/26/12 51/32/12
f 49/35/13 46/24/13 47/25/13 50/34/13
f 52/36/14 45/23/14 46/24/14 49/35/14
f 26/18/6 69/21/6 71/37/6 70/19/6 23/11/6 24/2/6 25/22/6
f 72/38/1 51/32/1 52/33/1 55/39/1
f 56/6/2 57/40/2 58/7/2
f 53/16/4 57/14/4 62/14/4 59/16/4
f 8/41/2 7/15/2 57/14/2 53/16/2
f 61/6/2 60/8/2 59/16/2 62/14/2
f 56/6/1 54/8/1 60/8/1 61/6/1
f 57/40/15 56/6/15 61/6/15 62/40/15
f 67/42/3 66/43/3 50/34/3 51/32/3 72/38/3 64/44/3
f 66/43/4 65/45/4 49/35/4 50/34/4
f 71/37/6 69/21/6 70/19/6
f 69/21/6 68/20/6 70/19/6
f 55/39/2 52/36/2 49/35/2 65/45/2
f 74/46/16 75/47/16 22/18/16 18/22/16 17/2/16 21/11/16 80/48/16
f 84/6/2 82/8/2 73/16/2 83/14/2
f 21/11/16 22/18/16 75/47/16 78/49/16 80/48/16
f 77/16/1 76/14/1 83/14/1 73/16/1
f 76/14/10 79/6/10 84/6/10 83/14/10
f 81/8/15 77/16/15 73/16/15 82/8/15
f 79/6/4 81/8/4 82/8/4 84/6/4
f 88/9/1 86/13/1 85/12/1 87/5/1
f 92/50/15 91/51/15 99/51/15 100/50/15
f 87/5/10 85/12/10 95/12/10 96/5/10
f 85/12/3 86/13/3 94/13/3 95/12/3
f 88/9/2 87/5/2 96/5/2 93/9/2
f 86/13/15 88/9/15 93/9/15 94/13/15
f 89/52/4 90/53/4 94/13/4 93/9/4
f 90/53/4 91/51/4 95/12/4 94/13/4
f 92/50/4 89/52/4 93/9/4 96/5/4
f 91/51/4 92/50/4 96/5/4 95/12/4
f 97/52/4 100/50/4 99/51/4 98/53/4
f 91/51/2 90/53/2 98/53/2 99/51/2
f 89/52/3 92/50/3 100/50/3 97/52/3
f 90/53/10 89/52/10 97/52/10 98/53/10
f 104/9/1 102/13/1 101/12/1 103/5/1
f 108/50/15 107/51/15 115/51/15 116/50/15
f 103/5/10 101/12/10 111/12/10 112/5/10
f 101/12/3 102/13/3 110/13/3 111/12/3
f 104/9/2 103/5/2 112/5/2 109/9/2
f 102/13/15 104/9/15 109/9/15 110/13/15
f 105/52/4 106/53/4 110/13/4 109/9/4
f 106/53/4 107/51/4 111/12/4 110/13/4
f 108/50/4 105/52/4 109/9/4 112/5/4
f 107/51/4 108/50/4 112/5/4 111/12/4
f 113/52/4 116/50/4 115/51/4 114/53/4
f 107/51/2 106/53/2 114/53/2 115/51/2
f 105/52/3 108/50/3 116/50/3 113/52/3
f 106/53/10 105/52/10 113/52/10 114/53/10
f 120/9/1 118/13/1 117/12/1 119/5/1
f 124/50/15 123/51/15 131/51/15 132/50/15
f 119/5/10 117/12/10 127/12/10 128/5/10
f 117/12/3 118/13/3 126/13/3 127/12/3
f 120/9/2 119/5/2 128/5/2 125/9/2
f 118/13/15 120/9/15 125/9/15 126/13/15
f 121/52/4 122/53/4 126/13/4 125/9/4
f 122/53/4 123/51/4 127/12/4 126/13/4
f 124/50/4 121/52/4 125/9/4 128/5/4
f 123/51/4 124/50/4 128/5/4 127/12/4
f 129/52/4 132/50/4 131/51/4 130/53/4
f 123/51/2 122/53/2 130/53/2 131/51/2
f 121/52/3 124/50/3 132/50/3 129/52/3
f 122/53/10 121/52/10 129/52/10 130/53/10
f 136/9/4 134/13/4 133/12/4 135/5/4
f 140/50/15 139/51/15 147/51/15 148/50/15
f 135/5/10 133/12/10 143/12/10 144/5/10
f 133/12/2 134/13/2 142/13/2 143/12/2
f 136/9/3 135/5/3 144/5/3 141/9/3
f 134/13/15 136/9/15 141/9/15 142/13/15
f 137/52/1 138/53/1 142/13/1 141/9/1
f 138/53/1 139/51/1 143/12/1 142/13/1
f 140/50/1 137/52/1 141/9/1 144/5/1
f 139/51/1 140/50/1 144/5/1 143/12/1
f 145/52/1 148/50/1 147/51/1 146/53/1
f 139/51/3 138/53/3 146/53/3 147/51/3
f 137/52/2 140/50/2 148/50/2 145/52/2
f 138/53/10 137/52/10 145/52/10 146/53/10
f 152/9/4 150/13/4 149/12/4 151/5/4
f 156/50/15 155/51/15 163/51/15 164/50/15
f 151/5/10 149/12/10 159/12/10 160/5/10
f 149/12/2 150/13/2 158/13/2 159/12/2
f 152/9/3 151/5/3 160/5/3 157/9/3
f 150/13/15 152/9/15 157/9/15 158/13/15
f 153/52/1 154/53/1 158/13/1 157/9/1
f 154/53/1 155/51/1 159/12/1 158/13/1
f 156/50/1 153/52/1 157/9/1 160/5/1
f 155/51/1 156/50/1 160/5/1 159/12/1
f 161/52/1 164/50/1 163/51/1 162/53/1
f 155/51/3 154/53/3 162/53/3 163/51/3
f 153/52/2 156/50/2 164/50/2 161/52/2
f 154/53/10 153/52/10 161/52/10 162/53/10
f 168/9/4 166/13/4 165/12/4 167/5/4
f 172/50/15 171/51/15 179/51/15 180/50/15
f 167/5/10 165/12/10 175/12/10 176/5/10
f 165/12/2 166/13/2 174/13/2 175/12/2
f 168/9/3 167/5/3 176/5/3 173/9/3
f 166/13/15 168/9/15 173/9/15 174/13/15
f 169/52/1 170/53/1 174/13/1 173/9/1
f 170/53/1 171/51/1 175/12/1 174/13/1
f 172/50/1 169/52/1 173/9/1 176/5/1
f 171/51/1 172/50/1 176/5/1 175/12/1
f 177/52/1 180/50/1 179/51/1 178/53/1
f 171/51/3 170/53/3 178/53/3 179/51/3
f 169/52/2 172/50/2 180/50/2 177/52/2
f 170/53/10 169/52/10 177/52/10 178/53/10
f 184/9/3 182/13/3 181/12/3 183/5/3
f 188/50/15 187/51/15 195/51/15 196/50/15
f 183/5/10 181/12/10 191/12/10 192/5/10
f 181/12/4 182/13/4 190/13/4 191/12/4
f 184/9/1 183/5/1 192/5/1 189/9/1
f 182/13/15 184/9/15 189/9/15 190/13/15
f 185/52/2 186/53/2 190/13/2 189/9/2
f 186/53/2 187/51/2 191/12/2 190/13/2
f 188/50/2 185/52/2 189/9/2 192/5/2
f 187/51/2 188/50/2 192/5/2 191/12/2
f 193/52/2 196/50/2 195/51/2 194/53/2
f 187/51/1 186/53/1 194/53/1 195/51/1
f 185/52/4 188/50/4 196/50/4 193/52/4
f 186/53/10 185/52/10 193/52/10 194/53/10
