# Blender 3.6.1
# www.blender.org
mtllib pipe.mtl
o Pipe
v 0.000000 -0.000000 -0.500000
v 0.000000 2.000000 -0.500000
v 0.250000 -0.000000 -0.433013
v 0.250000 2.000000 -0.433013
v 0.433013 -0.000000 -0.250000
v 0.433013 2.000000 -0.250000
v 0.500000 0.000000 0.000000
v 0.500000 2.000000 -0.000000
v 0.433013 0.000000 0.250000
v 0.433013 2.000000 0.250000
v 0.250000 0.000000 0.433013
v 0.250000 2.000000 0.433013
v 0.000000 0.000000 0.500000
v 0.000000 2.000000 0.500000
v -0.250000 0.000000 0.433013
v -0.250000 2.000000 0.433013
v -0.433013 0.000000 0.250000
v -0.433013 2.000000 0.250000
v -0.500000 0.000000 0.000000
v -0.500000 2.000000 -0.000000
v -0.433013 -0.000000 -0.250000
v -0.433013 2.000000 -0.250000
v -0.250000 -0.000000 -0.433013
v -0.250000 2.000000 -0.433013
v 0.000000 2.000000 -0.500000
v 0.250000 2.000000 -0.433013
v 0.433013 2.000000 -0.250000
v 0.500000 2.000000 -0.000000
v 0.433013 2.000000 0.250000
v 0.250000 2.000000 0.433013
v 0.000000 2.000000 0.500000
v -0.250000 2.000000 0.433013
v -0.433013 2.000000 0.250000
v -0.500000 2.000000 -0.000000
v -0.433013 2.000000 -0.250000
v -0.250000 2.000000 -0.433013
v -0.000188 2.000000 -0.432114
v 0.215165 2.000000 -0.374411
v 0.372814 2.000000 -0.216762
v 0.430517 2.000000 -0.001409
v 0.372814 2.000000 0.213944
v 0.215165 2.000000 0.371593
v -0.000188 2.000000 0.429297
v -0.215541 2.000000 0.371593
v -0.373190 2.000000 0.213944
v -0.430893 2.000000 -0.001409
v -0.373190 2.000000 -0.216762
v -0.215541 2.000000 -0.374411
v -0.000188 1.530308 -0.432114
v 0.215165 1.530308 -0.374411
v 0.372814 1.530308 -0.216762
v 0.430517 1.530308 -0.001409
v 0.372814 1.530308 0.213944
v 0.215165 1.530308 0.371593
v -0.000188 1.530308 0.429297
v -0.215541 1.530308 0.371593
v -0.373190 1.530308 0.213944
v -0.430893 1.530308 -0.001409
v -0.373190 1.530308 -0.216762
v -0.215541 1.530308 -0.374411
v 1.019384 3.950764 -0.500000
v 1.175712 3.755670 -0.433012
v 1.290151 3.612851 -0.250000
v 1.332039 3.560575 -0.000000
v 1.290151 3.612851 0.250000
v 1.175712 3.755670 0.433013
v 1.019384 3.950764 0.500000
v 0.863057 4.145858 0.433013
v 0.748617 4.288677 0.250000
v 0.706730 4.340952 -0.000000
v 0.748617 4.288677 -0.250000
v 0.863057 4.145858 -0.433012
v -0.012992 2.994197 -0.500000
v 0.200545 3.355963 -0.500000
v -0.254585 3.058487 -0.433013
v 0.015575 3.524147 -0.433012
v -0.431442 3.105550 -0.250000
v -0.119833 3.647266 -0.250000
v -0.496177 3.122777 -0.000000
v -0.169395 3.692331 -0.000000
v -0.431442 3.105550 0.250000
v -0.119833 3.647266 0.250000
v -0.254585 3.058486 0.433013
v 0.015575 3.524147 0.433013
v -0.012992 2.994197 0.500000
v 0.200545 3.355962 0.500000
v 0.228600 2.929907 0.433013
v 0.385516 3.187778 0.433013
v 0.405458 2.882843 0.250000
v 0.520923 3.064659 0.250000
v 0.470192 2.865617 -0.000000
v 0.570486 3.019594 -0.000000
v 0.405458 2.882843 -0.250000
v 0.520923 3.064659 -0.250000
v 0.385516 3.187778 -0.433013
v 0.228600 2.929907 -0.433013
v 3.452531 5.610880 -0.500000
v 3.590678 5.402516 -0.433012
v 3.691809 5.249983 -0.250000
v 3.728826 5.194153 -0.000000
v 3.691809 5.249983 0.250000
v 3.590678 5.402516 0.433013
v 3.452531 5.610880 0.500001
v 3.314384 5.819243 0.433013
v 3.213253 5.971776 0.250001
v 3.176237 6.027606 0.000001
v 3.213253 5.971776 -0.249999
v 3.314384 5.819243 -0.433012
v 6.007336 6.103592 -0.500000
v 6.008623 5.853596 -0.433012
v 6.009566 5.670585 -0.250000
v 6.009911 5.603599 -0.000000
v 6.009566 5.670585 0.250000
v 6.008624 5.853596 0.433013
v 6.007336 6.103592 0.500001
v 6.006048 6.353589 0.433013
v 6.005105 6.536600 0.250001
v 6.004760 6.603585 0.000001
v 6.005105 6.536600 -0.249999
v 6.006048 6.353590 -0.433012
v 4.359413 6.141942 -0.500000
v 4.917277 6.174680 -0.499999
v 4.286922 6.381202 -0.433012
v 4.918090 6.424680 -0.433012
v 4.233855 6.556352 -0.249999
v 4.918686 6.607691 -0.249999
v 4.214431 6.620461 0.000001
v 4.918903 6.674678 0.000000
v 4.233856 6.556351 0.250001
v 4.918686 6.607691 0.250001
v 4.286922 6.381202 0.433013
v 4.918091 6.424679 0.433013
v 4.359413 6.141942 0.500001
v 4.917278 6.174681 0.500001
v 4.431904 5.902683 0.433013
v 4.916464 5.924682 0.433013
v 4.484970 5.727532 0.250000
v 4.915869 5.741670 0.250001
v 4.504395 5.663424 -0.000000
v 4.915651 5.674683 0.000001
v 4.484970 5.727532 -0.250000
v 4.915869 5.741670 -0.249999
v 4.916464 5.924682 -0.433012
v 4.431904 5.902683 -0.433012
v 0.001857 -0.059547 1.631701
v 0.001857 1.940453 1.631701
v 0.251857 -0.059547 1.698688
v 0.251857 1.940453 1.698688
v 0.434870 -0.059547 1.881701
v 0.434870 1.940453 1.881701
v 0.501857 -0.059547 2.131701
v 0.501857 1.940453 2.131701
v 0.434870 -0.059547 2.381701
v 0.434870 1.940453 2.381701
v 0.251857 -0.059547 2.564713
v 0.251857 1.940453 2.564713
v 0.001857 -0.059547 2.631701
v 0.001857 1.940453 2.631701
v -0.248143 -0.059547 2.564713
v -0.248143 1.940453 2.564713
v -0.431155 -0.059547 2.381701
v -0.431155 1.940453 2.381701
v -0.498143 -0.059547 2.131701
v -0.498143 1.940453 2.131701
v -0.431155 -0.059547 1.881701
v -0.431155 1.940453 1.881701
v -0.248143 -0.059547 1.698688
v -0.248143 1.940453 1.698688
v 0.001857 1.940453 2.631701
v 1.908304 2.737706 1.698688
v 1.908304 2.987706 1.631701
v 1.908304 3.487706 2.131701
v 1.908304 2.737706 2.564713
v 1.908304 2.554693 2.381701
v 1.908304 2.487706 2.131701
v 1.908304 2.554693 1.881701
v 1.908304 3.237706 1.698688
v 1.908304 3.420719 2.381701
v 1.908304 3.237706 2.564713
v 1.908304 2.987706 2.631701
v 1.908304 3.371896 1.881701
v 0.683187 2.735973 1.631700
v 1.304541 2.926033 1.631700
v 0.575769 3.126728 1.698688
v 1.255041 3.171083 1.698688
v 0.497133 3.344055 1.881701
v 1.218804 3.350554 1.881701
v 0.468350 3.471022 2.131701
v 1.205541 3.482137 2.131700
v 0.497133 3.381158 2.381701
v 1.218804 3.394475 2.381701
v 0.575769 3.126728 2.564713
v 1.255041 3.171083 2.564713
v 0.683187 2.870425 2.631701
v 1.304541 2.926033 2.631701
v 0.391012 2.251344 2.564713
v 0.790605 2.466539 2.579002
v 1.354042 2.680982 2.564713
v 0.532469 2.135225 2.381701
v 0.869241 2.344969 2.381701
v 1.390278 2.501593 2.381700
v 0.584245 2.092722 2.131700
v 0.898024 2.284481 2.131701
v 1.403542 2.435932 2.131701
v 0.532469 2.135225 1.881700
v 0.869241 2.344969 1.881701
v 1.390278 2.501593 1.881701
v 1.354042 2.680983 1.698688
v 0.790605 2.510227 1.698688
v 0.391012 2.251344 1.698688
v -0.248143 1.940453 2.564713
v -0.431155 1.940453 2.381701
v -0.498143 1.940453 2.131701
v -0.431155 1.940453 1.881701
v -0.253214 1.936701 1.699605
v -1.919094 2.737706 2.559321
v -1.919094 2.987706 2.626308
v -1.919094 3.487706 2.126308
v -1.919094 2.737706 1.693295
v -1.919094 2.554693 1.876308
v -1.919094 2.487706 2.126308
v -1.919094 2.554693 2.376308
v -1.919094 3.237706 2.559321
v -1.919094 3.381660 1.876308
v -1.919094 3.237706 1.693295
v -1.919094 2.987706 1.626308
v -1.919094 3.420719 2.376307
v -0.693978 2.870425 2.626308
v -1.315333 2.926033 2.626308
v -0.586560 3.126728 2.559321
v -1.265832 3.171083 2.559321
v -0.507924 3.371393 2.376308
v -1.229595 3.394475 2.376308
v -0.479142 3.471022 2.126308
v -1.216332 3.482137 2.126308
v -0.507924 3.344055 1.876308
v -1.229595 3.360319 1.876308
v -0.586560 3.126728 1.693295
v -1.265832 3.171083 1.693295
v -0.693978 2.735973 1.626308
v -1.315332 2.926033 1.626308
v -0.401803 2.251344 1.693295
v -0.801396 2.510227 1.693295
v -1.364833 2.680982 1.693295
v -0.543260 2.135225 1.876308
v -0.880032 2.344969 1.876308
v -1.401069 2.501593 1.876308
v -0.595036 2.092722 2.126308
v -0.908815 2.284481 2.126308
v -1.414333 2.435932 2.126308
v -0.543260 2.135225 2.376308
v -0.880032 2.344969 2.376308
v -1.401069 2.501593 2.376308
v -1.364833 2.680983 2.559320
v -0.801396 2.510227 2.586514
v -0.401804 2.251344 2.559321
v -0.005396 2.510227 2.643225
v -0.005396 2.251344 2.630373
v -0.005396 2.870425 2.629004
v -0.005396 2.251344 1.631362
v -0.005396 2.510227 1.629454
v -0.005396 2.735973 1.629004
v -0.005396 3.126728 1.695992
v -0.005396 3.344055 1.879004
v -0.005396 3.126728 2.562017
v -0.005396 3.390923 2.379004
v -0.005396 3.480787 2.129004
vn 0.2588 -0.0000 -0.9659
vn 0.7071 -0.0000 -0.7071
vn 0.9659 -0.0000 -0.2588
vn 0.9659 -0.0000 0.2588
vn 0.7071 -0.0000 0.7071
vn 0.2588 -0.0000 0.9659
vn -0.2588 -0.0000 0.9659
vn -0.7071 -0.0000 0.7071
vn -0.9659 -0.0000 0.2588
vn -0.9659 -0.0000 -0.2588
vn -0.0000 1.0000 -0.0000
vn -0.0000 -0.0000 -1.0000
vn -0.7071 -0.0000 -0.7071
vn -0.2588 -0.0000 -0.9659
vn -0.0000 1.0000 -0.0001
vn -0.0000 -0.0000 1.0000
vn 0.4140 -0.5784 -0.7029
vn 0.5604 -0.7877 -0.2559
vn 0.5604 -0.7877 0.2559
vn 0.4140 -0.5784 0.7029
vn 0.1532 -0.2120 0.9652
vn -0.1541 0.2111 0.9652
vn -0.4213 0.5724 0.7035
vn -0.5747 0.7772 0.2564
vn -0.5747 0.7772 -0.2564
vn -0.4213 0.5724 -0.7035
vn -0.1542 0.2111 -0.9652
vn 0.1532 -0.2120 -0.9652
vn -0.2296 0.1342 -0.9640
vn -0.2632 -0.0023 -0.9647
vn -0.6212 0.3587 -0.6967
vn -0.7131 -0.0010 -0.7010
vn -0.8391 0.4821 -0.2519
vn -0.9670 0.0023 -0.2548
vn -0.8391 0.4821 0.2519
vn -0.9670 0.0023 0.2548
vn -0.6212 0.3587 0.6967
vn -0.7131 -0.0010 0.7010
vn -0.2296 0.1342 0.9640
vn -0.2632 -0.0023 0.9647
vn 0.2284 -0.1365 0.9640
vn 0.2635 0.0047 0.9646
vn 0.6102 -0.3780 0.6963
vn 0.7142 0.0193 0.6997
vn 0.8143 -0.5232 0.2513
vn 0.9668 0.0317 0.2536
vn 0.8143 -0.5232 -0.2513
vn 0.9668 0.0317 -0.2536
vn 0.6102 -0.3780 -0.6963
vn 0.7142 0.0193 -0.6997
vn 0.2284 -0.1365 -0.9640
vn 0.2635 0.0047 -0.9646
vn 0.5441 -0.7982 0.2584
vn -0.3990 0.5844 -0.7066
vn 0.1461 -0.2141 -0.9658
vn -0.3990 0.5844 0.7066
vn 0.3986 -0.5847 0.7066
vn -0.1461 0.2141 -0.9658
vn 0.3986 -0.5847 -0.7066
vn -0.5448 0.7977 0.2585
vn 0.1461 -0.2141 0.9658
vn 0.5441 -0.7982 -0.2584
vn -0.5448 0.7977 -0.2585
vn -0.1461 0.2141 0.9658
vn -0.0459 -0.7064 -0.7063
vn -0.0626 -0.9640 -0.2583
vn -0.0626 -0.9640 0.2583
vn -0.0459 -0.7064 0.7063
vn -0.0169 -0.2588 0.9658
vn 0.0169 0.2588 0.9658
vn 0.0462 0.7064 0.7063
vn 0.0631 0.9640 0.2583
vn 0.0631 0.9640 -0.2583
vn 0.0462 0.7064 -0.7063
vn 0.0169 0.2588 -0.9658
vn -0.0169 -0.2588 -0.9658
vn -0.0168 0.2618 -0.9650
vn -0.1319 0.2268 -0.9650
vn -0.0512 0.7101 -0.7022
vn -0.3550 0.6172 -0.7021
vn -0.0732 0.9640 -0.2556
vn -0.4800 0.8393 -0.2555
vn -0.0732 0.9640 0.2556
vn -0.4800 0.8393 0.2555
vn -0.0512 0.7101 0.7022
vn -0.3550 0.6172 0.7021
vn -0.0168 0.2618 0.9650
vn -0.1319 0.2268 0.9650
vn 0.0138 -0.2622 0.9649
vn 0.1334 -0.2261 0.9649
vn 0.0281 -0.7124 0.7012
vn 0.3658 -0.6115 0.7016
vn 0.0292 -0.9666 0.2546
vn 0.4997 -0.8278 0.2550
vn 0.0292 -0.9666 -0.2546
vn 0.4997 -0.8278 -0.2550
vn 0.0281 -0.7124 -0.7012
vn 0.3658 -0.6115 -0.7016
vn 0.0138 -0.2622 -0.9649
vn 0.1334 -0.2261 -0.9649
vn 0.0722 -0.7052 -0.7053
vn 0.0986 -0.9612 -0.2576
vn 0.0986 -0.9612 0.2576
vn 0.0722 -0.7052 0.7053
vn 0.0264 -0.2587 0.9656
vn -0.0264 0.2587 0.9656
vn -0.0461 0.6662 0.7443
vn -0.0218 0.9550 0.2959
vn -0.0173 0.8960 -0.4438
vn -0.0495 0.7560 -0.6527
vn -0.0264 0.2587 -0.9656
vn 0.0264 -0.2587 -0.9656
vn -0.0356 0.1976 -0.9796
vn -0.0245 0.6740 -0.7383
vn 0.1020 -0.1424 0.9845
vn -0.0107 0.8878 -0.4600
vn 0.2009 -0.0405 0.9788
vn -0.0158 0.9418 0.3357
vn -0.0249 0.6041 0.7965
vn -0.0194 0.2524 0.9674
vn 0.0505 -0.1693 0.9843
vn 0.2547 -0.7194 0.6462
vn 0.3757 -0.6725 0.6377
vn 0.6608 -0.3094 0.6839
vn 0.2778 -0.9257 0.2569
vn 0.5083 -0.8236 0.2515
vn 0.8612 -0.4467 0.2425
vn 0.2778 -0.9257 -0.2569
vn 0.5083 -0.8236 -0.2515
vn 0.8612 -0.4467 -0.2425
vn 0.2052 -0.6796 -0.7043
vn 0.3851 -0.6051 -0.6968
vn 0.6608 -0.3094 -0.6839
vn 0.0760 -0.2494 -0.9654
vn -0.0722 -0.7052 0.7053
vn -0.0986 -0.9612 0.2576
vn -0.0986 -0.9612 -0.2576
vn -0.0722 -0.7052 -0.7053
vn -0.0264 -0.2587 -0.9656
vn 0.0264 0.2587 -0.9656
vn 0.0482 0.7363 -0.6750
vn 0.0176 0.9096 -0.4150
vn 0.0218 0.9550 0.2959
vn 0.0461 0.6662 0.7443
vn 0.0264 0.2587 0.9656
vn -0.0264 -0.2587 0.9656
vn 0.0194 0.2524 0.9674
vn 0.0294 0.6113 0.7909
vn 0.0219 0.9356 0.3523
vn 0.0401 -0.0446 0.9982
vn 0.0168 0.8946 -0.4465
vn 0.0287 0.6643 -0.7469
vn 0.0356 0.1976 -0.9796
vn -0.0760 -0.2494 -0.9654
vn -0.2052 -0.6796 -0.7043
vn -0.3851 -0.6051 -0.6968
vn -0.6499 -0.3481 -0.6756
vn -0.2778 -0.9257 -0.2569
vn -0.5083 -0.8236 -0.2515
vn -0.8283 -0.5063 -0.2398
vn -0.2778 -0.9257 0.2569
vn -0.5083 -0.8236 0.2515
vn -0.8348 -0.4953 0.2404
vn -0.2278 -0.6983 0.6786
vn -0.3810 -0.6376 0.6695
vn -0.6527 -0.3285 0.6828
vn -0.0532 -0.1601 0.9857
vn -0.1945 -0.0597 -0.9791
vn -0.1045 -0.0843 -0.9909
vn -0.0408 -0.1381 -0.9896
vn 0.0042 0.1684 -0.9857
vn 0.0038 0.6437 -0.7652
vn 0.0170 0.9412 0.3374
vn -0.0041 0.2537 0.9673
vn -0.0146 0.5854 0.8106
vn -0.0063 0.8847 -0.4662
vn -0.0300 0.9352 0.3527
vn 0.0114 0.8847 -0.4660
vn 0.0011 0.5767 0.8169
vn -0.0041 0.2521 0.9677
vn 0.0038 0.6445 -0.7646
vn 0.0042 0.1695 -0.9855
vn 0.0479 -0.1364 -0.9895
vn 0.1133 -0.0911 -0.9894
vn -0.0400 -0.0295 0.9988
vn -0.1052 -0.1571 0.9820
vn 0.2032 -0.0436 -0.9782
vn -0.2086 -0.0434 0.9770
vt 1.000000 0.500000
vt 1.000000 1.000000
vt 0.916667 1.000000
vt 0.916667 0.500000
vt 0.833333 1.000000
vt 0.833333 0.500000
vt 0.750000 1.000000
vt 0.750000 0.500000
vt 0.666667 1.000000
vt 0.666667 0.500000
vt 0.583333 1.000000
vt 0.583333 0.500000
vt 0.500000 1.000000
vt 0.500000 0.500000
vt 0.416667 1.000000
vt 0.416667 0.500000
vt 0.333333 1.000000
vt 0.333333 0.500000
vt 0.250000 1.000000
vt 0.250000 0.500000
vt 0.166667 1.000000
vt 0.166667 0.500000
vt 0.083333 1.000000
vt 0.083333 0.500000
vt 0.000000 1.000000
vt 0.000000 0.500000
vt 0.000000 0.000000
vt 0.277778 0.333333
vt 0.305556 0.333333
vt 0.250000 0.333333
vt 0.222222 0.333333
vt 0.194444 0.333333
vt 0.166667 0.333333
vt 0.138889 0.333333
vt 0.111111 0.333333
vt 0.083333 0.333333
vt 0.055556 0.333333
vt 0.027778 0.333333
vt 0.000000 0.333333
vt 0.333333 0.333333
vt 0.000000 0.666667
vt 0.055556 0.666667
vt 0.111111 0.666667
vt 0.166667 0.666667
vt 0.222222 0.666667
vt 0.277778 0.666667
vt 0.333333 0.666667
vt 0.388889 0.666667
vt 0.444444 0.666667
vt 0.500000 0.666667
vt 0.555556 0.666667
vt 0.611111 0.666667
vt 0.666667 0.666667
vt 0.208333 0.250000
vt 0.229167 0.250000
vt 0.187500 0.250000
vt 0.166667 0.250000
vt 0.145833 0.250000
vt 0.125000 0.250000
vt 0.104167 0.250000
vt 0.083333 0.250000
vt 0.062500 0.250000
vt 0.041667 0.250000
vt 0.020833 0.250000
vt 0.000000 0.250000
vt 0.250000 0.250000
vt 0.041667 0.500000
vt 0.375000 0.500000
vt 0.343750 0.375000
vt 0.291667 0.500000
vt 0.125000 0.500000
vt 0.208333 0.500000
vt 0.437500 0.750000
vt 0.500000 0.750000
vt 0.562500 0.750000
vt 0.625000 0.750000
vt 0.458333 0.500000
vt 0.687500 0.750000
s 0
f 1/1/1 2/2/1 4/3/1 3/4/1
f 3/4/2 4/3/2 6/5/2 5/6/2
f 5/6/3 6/5/3 8/7/3 7/8/3
f 7/8/4 8/7/4 10/9/4 9/10/4
f 9/10/5 10/9/5 12/11/5 11/12/5
f 11/12/6 12/11/6 14/13/6 13/14/6
f 13/14/7 14/13/7 16/15/7 15/16/7
f 15/16/8 16/15/8 18/17/8 17/18/8
f 17/18/9 18/17/9 20/19/9 19/20/9
f 19/20/10 20/19/10 22/21/10 21/22/10
f 20/19/11 18/17/12 33/17/11 34/19/12
f 21/22/13 22/21/13 24/23/13 23/24/13
f 23/24/14 24/23/14 2/25/14 1/26/14
f 18/17/15 16/15/12 32/15/11 33/17/12
f 16/15/15 14/13/16 31/13/11 32/15/12
f 14/13/11 12/11/12 30/11/15 31/13/16
f 12/11/11 10/9/12 29/9/15 30/11/12
f 10/9/11 8/7/12 28/7/11 29/9/12
f 2/25/15 24/23/16 36/23/11 25/25/12
f 4/3/11 2/2/12 25/2/15 26/3/16
f 8/7/11 6/5/12 27/5/11 28/7/12
f 24/23/15 22/21/12 35/21/11 36/23/12
f 6/5/11 4/3/12 26/3/15 27/5/12
f 22/21/11 20/19/12 34/19/11 35/21/12
f 30/11/11 29/9/11 41/9/11 42/11/11
f 25/25/11 36/23/11 48/23/11 37/25/11
f 27/5/11 26/3/11 38/3/11 39/5/11
f 34/19/11 33/17/11 45/17/11 46/19/11
f 31/13/11 30/11/11 42/11/11 43/13/11
f 28/7/11 27/5/11 39/5/11 40/7/11
f 35/21/11 34/19/11 46/19/11 47/21/11
f 32/15/11 31/13/11 43/13/11 44/15/11
f 29/9/11 28/7/11 40/7/11 41/9/11
f 36/23/11 35/21/11 47/21/11 48/23/11
f 26/3/11 25/2/11 37/2/11 38/3/11
f 33/17/11 32/15/11 44/15/11 45/17/11
f 45/17/2 44/15/2 56/15/2 57/17/2
f 42/11/13 41/9/13 53/9/13 54/11/13
f 37/25/6 48/23/6 60/23/6 49/25/6
f 39/5/8 38/3/8 50/3/8 51/5/8
f 46/19/3 45/17/3 57/17/3 58/19/3
f 43/13/14 42/11/14 54/11/14 55/13/14
f 40/7/9 39/5/9 51/5/9 52/7/9
f 47/21/4 46/19/4 58/19/4 59/21/4
f 44/15/1 43/13/1 55/13/1 56/15/1
f 41/9/10 40/7/10 52/7/10 53/9/10
f 48/23/5 47/21/5 59/21/5 60/23/5
f 38/3/7 37/2/7 49/2/7 50/3/7
f 62/27/17 63/27/17 94/28/17 95/29/17
f 63/27/18 64/27/18 92/30/18 94/28/18
f 64/27/19 65/27/19 90/31/19 92/30/19
f 65/27/20 66/27/20 88/32/20 90/31/20
f 66/27/21 67/27/21 86/33/21 88/32/21
f 67/27/22 68/27/22 84/34/22 86/33/22
f 68/27/23 69/27/23 82/35/23 84/34/23
f 69/27/24 70/27/24 80/36/24 82/35/24
f 70/27/25 71/27/25 78/37/25 80/36/25
f 71/27/26 72/27/26 76/38/26 78/37/26
f 72/27/27 61/27/27 74/39/27 76/38/27
f 61/27/28 62/27/28 95/29/28 74/40/28
f 76/38/29 74/39/29 73/41/29 75/42/29
f 75/42/30 73/41/30 25/25/30 36/23/30
f 78/37/31 76/38/31 75/42/31 77/43/31
f 77/43/32 75/42/32 36/23/32 35/21/32
f 80/36/33 78/37/33 77/43/33 79/44/33
f 79/44/34 77/43/34 35/21/34 34/19/34
f 82/35/35 80/36/35 79/44/35 81/45/35
f 81/45/36 79/44/36 34/19/36 33/17/36
f 84/34/37 82/35/37 81/45/37 83/46/37
f 83/46/38 81/45/38 33/17/38 32/15/38
f 86/33/39 84/34/39 83/46/39 85/47/39
f 85/47/40 83/46/40 32/15/40 31/13/40
f 88/32/41 86/33/41 85/47/41 87/48/41
f 87/48/42 85/47/42 31/13/42 30/11/42
f 90/31/43 88/32/43 87/48/43 89/49/43
f 89/49/44 87/48/44 30/11/44 29/9/44
f 92/30/45 90/31/45 89/49/45 91/50/45
f 91/50/46 89/49/46 29/9/46 28/7/46
f 94/28/47 92/30/47 91/50/47 93/51/47
f 93/51/48 91/50/48 28/7/48 27/5/48
f 95/29/49 94/28/49 93/51/49 96/52/49
f 96/52/50 93/51/50 27/5/50 26/3/50
f 74/40/51 95/29/51 96/52/51 73/53/51
f 73/53/52 96/52/52 26/3/52 25/2/52
f 65/27/53 64/27/53 100/27/53 101/27/53
f 72/27/54 71/27/54 107/27/54 108/27/54
f 62/27/55 61/27/55 97/27/55 98/27/55
f 69/27/56 68/27/56 104/27/56 105/27/56
f 66/27/57 65/27/57 101/27/57 102/27/57
f 61/27/58 72/27/58 108/27/58 97/27/58
f 63/27/59 62/27/59 98/27/59 99/27/59
f 70/27/60 69/27/60 105/27/60 106/27/60
f 67/27/61 66/27/61 102/27/61 103/27/61
f 64/27/62 63/27/62 99/27/62 100/27/62
f 71/27/63 70/27/63 106/27/63 107/27/63
f 68/27/64 67/27/64 103/27/64 104/27/64
f 110/27/65 111/27/65 142/27/65 143/27/65
f 111/27/66 112/27/66 140/27/66 142/27/66
f 112/27/67 113/27/67 138/27/67 140/27/67
f 113/27/68 114/27/68 136/27/68 138/27/68
f 114/27/69 115/27/69 134/27/69 136/27/69
f 115/27/70 116/27/70 132/27/70 134/27/70
f 116/27/71 117/27/71 130/27/71 132/27/71
f 117/27/72 118/27/72 128/27/72 130/27/72
f 118/27/73 119/27/73 126/27/73 128/27/73
f 119/27/74 120/27/74 124/27/74 126/27/74
f 120/27/75 109/27/75 122/27/75 124/27/75
f 109/27/76 110/27/76 143/27/76 122/27/76
f 124/27/77 122/27/77 121/27/77 123/27/77
f 123/27/78 121/27/78 97/27/78 108/27/78
f 126/27/79 124/27/79 123/27/79 125/27/79
f 125/27/80 123/27/80 108/27/80 107/27/80
f 128/27/81 126/27/81 125/27/81 127/27/81
f 127/27/82 125/27/82 107/27/82 106/27/82
f 130/27/83 128/27/83 127/27/83 129/27/83
f 129/27/84 127/27/84 106/27/84 105/27/84
f 132/27/85 130/27/85 129/27/85 131/27/85
f 131/27/86 129/27/86 105/27/86 104/27/86
f 134/27/87 132/27/87 131/27/87 133/27/87
f 133/27/88 131/27/88 104/27/88 103/27/88
f 136/27/89 134/27/89 133/27/89 135/27/89
f 135/27/90 133/27/90 103/27/90 102/27/90
f 138/27/91 136/27/91 135/27/91 137/27/91
f 137/27/92 135/27/92 102/27/92 101/27/92
f 140/27/93 138/27/93 137/27/93 139/27/93
f 139/27/94 137/27/94 101/27/94 100/27/94
f 142/27/95 140/27/95 139/27/95 141/27/95
f 141/27/96 139/27/96 100/27/96 99/27/96
f 143/27/97 142/27/97 141/27/97 144/27/97
f 144/27/98 141/27/98 99/27/98 98/27/98
f 122/27/99 143/27/99 144/27/99 121/27/99
f 121/27/100 144/27/100 98/27/100 97/27/100
f 145/1/1 146/2/1 148/3/1 147/4/1
f 147/4/2 148/3/2 150/5/2 149/6/2
f 149/6/3 150/5/3 152/7/3 151/8/3
f 151/8/4 152/7/4 154/9/4 153/10/4
f 153/10/5 154/9/5 156/11/5 155/12/5
f 155/12/6 156/11/6 158/13/6 157/14/6
f 157/14/7 158/13/7 160/15/7 159/16/7
f 159/16/8 160/15/8 162/17/8 161/18/8
f 161/18/9 162/17/9 164/19/9 163/20/9
f 163/20/10 164/19/10 166/21/10 165/22/10
f 165/22/13 166/21/13 168/23/13 167/24/13
f 167/24/14 168/23/14 146/25/14 145/26/14
f 170/27/101 176/27/101 207/54/101 208/55/101
f 176/27/102 175/27/102 204/56/102 207/54/102
f 175/27/103 174/27/103 201/57/103 204/56/103
f 174/27/104 173/27/104 198/58/104 201/57/104
f 173/27/105 180/27/105 195/59/105 198/58/105
f 180/27/106 179/27/106 193/60/106 195/59/106
f 179/27/107 178/27/107 191/61/107 193/60/107
f 178/27/108 172/27/108 189/62/108 191/61/108
f 172/27/109 181/27/109 187/63/109 189/62/109
f 181/27/110 177/27/110 185/64/110 187/63/110
f 177/27/111 171/27/111 183/65/111 185/64/111
f 171/27/112 170/27/112 208/55/112 183/66/112
f 185/64/113 183/65/113 182/26/113 184/67/113
f 187/63/114 185/64/114 184/67/114 186/24/114
f 257/68/115 258/69/115 196/27/115 197/70/115
f 189/62/116 187/63/116 186/24/116 188/71/116
f 258/69/117 169/27/117 156/11/117 196/27/117
f 191/61/118 189/62/118 188/71/118 190/22/118
f 193/60/119 191/61/119 190/22/119 192/72/119
f 195/59/120 193/60/120 192/72/120 194/20/120
f 198/58/121 195/59/121 194/20/121 197/70/121
f 201/57/122 198/58/122 197/70/122 200/18/122
f 200/18/123 197/70/123 196/73/123 199/74/123
f 199/74/124 196/73/124 156/11/124 154/9/124
f 204/56/125 201/57/125 200/18/125 203/68/125
f 203/68/126 200/18/126 199/74/126 202/75/126
f 202/75/127 199/74/127 154/9/127 152/7/127
f 207/54/128 204/56/128 203/68/128 206/16/128
f 206/16/129 203/68/129 202/75/129 205/76/129
f 205/76/130 202/75/130 152/7/130 150/5/130
f 208/55/131 207/54/131 206/16/131 209/77/131
f 209/77/132 206/16/132 205/76/132 210/78/132
f 210/78/133 205/76/133 150/5/133 148/3/133
f 183/66/134 208/55/134 209/77/134 182/14/134
f 216/27/135 222/27/135 253/54/135 254/55/135
f 222/27/136 221/27/136 250/56/136 253/54/136
f 221/27/137 220/27/137 247/57/137 250/56/137
f 220/27/138 219/27/138 244/58/138 247/57/138
f 219/27/139 226/27/139 241/59/139 244/58/139
f 226/27/140 225/27/140 239/60/140 241/59/140
f 225/27/141 224/27/141 237/61/141 239/60/141
f 224/27/142 218/27/142 235/62/142 237/61/142
f 218/27/143 227/27/143 233/63/143 235/62/143
f 227/27/144 223/27/144 231/64/144 233/63/144
f 223/27/145 217/27/145 229/65/145 231/64/145
f 217/27/146 216/27/146 254/55/146 229/66/146
f 231/64/147 229/65/147 228/26/147 230/67/147
f 233/63/148 231/64/148 230/67/148 232/24/148
f 235/62/149 233/63/149 232/24/149 234/71/149
f 257/68/150 197/70/150 194/20/150 259/68/150
f 237/61/151 235/62/151 234/71/151 236/22/151
f 239/60/152 237/61/152 236/22/152 238/72/152
f 241/59/153 239/60/153 238/72/153 240/20/153
f 244/58/154 241/59/154 240/20/154 243/70/154
f 247/57/155 244/58/155 243/70/155 246/18/155
f 246/18/156 243/70/156 242/73/156 245/74/156
f 245/74/157 242/73/157 215/11/157 214/9/157
f 250/56/158 247/57/158 246/18/158 249/68/158
f 249/68/159 246/18/159 245/74/159 248/75/159
f 248/75/160 245/74/160 214/9/160 213/7/160
f 253/54/161 250/56/161 249/68/161 252/16/161
f 252/16/162 249/68/162 248/75/162 251/76/162
f 251/76/163 248/75/163 213/7/163 212/5/163
f 254/55/164 253/54/164 252/16/164 255/77/164
f 255/77/165 252/16/165 251/76/165 256/78/165
f 256/78/166 251/76/166 212/5/166 211/3/166
f 229/66/167 254/55/167 255/77/167 228/14/167
f 146/25/168 168/23/168 215/11/168 242/73/168 260/75/168
f 261/68/169 260/75/169 242/73/169 243/70/169
f 262/68/170 261/68/170 243/70/170 240/20/170
f 263/71/171 262/68/171 240/20/171 238/72/171
f 264/71/172 263/71/172 238/72/172 236/22/172
f 190/22/173 188/71/173 267/71/173 266/71/173
f 259/68/174 265/64/174 230/67/174 228/14/174
f 265/27/175 266/71/175 232/24/175 230/27/175
f 267/71/176 264/71/176 236/22/176 234/71/176
f 266/71/177 267/71/177 234/71/177 232/24/177
f 188/71/178 186/24/178 264/71/178 267/71/178
f 192/27/179 190/22/179 266/71/179 265/27/179
f 194/20/180 192/27/180 265/64/180 259/68/180
f 186/24/181 184/67/181 263/71/181 264/71/181
f 184/67/182 182/14/182 262/68/182 263/71/182
f 182/14/183 209/77/183 261/68/183 262/68/183
f 209/77/184 210/78/184 260/75/184 261/68/184
f 255/77/185 257/68/185 259/68/185 228/14/185
f 255/77/186 256/78/186 258/69/186 257/68/186
f 146/25/187 260/75/187 210/78/187 148/3/187
f 211/3/188 169/27/188 258/69/188 256/78/188
