# Blender 3.6.1
# www.blender.org
mtllib stairs2.mtl
o Stairs_2
v -1.000000 -0.050000 0.200000
v -1.000000 0.050000 0.200000
v -1.000000 -0.050000 -0.200000
v -1.000000 0.050000 -0.200000
v 1.000000 -0.050000 0.200000
v 1.000000 0.050000 0.200000
v 1.000000 -0.050000 -0.200000
v 1.000000 0.050000 -0.200000
v -1.000000 0.050000 -0.200000
v -1.000000 0.150000 -0.200000
v -1.000000 0.050000 -0.600000
v -1.000000 0.150000 -0.600000
v 1.000000 0.050000 -0.200000
v 1.000000 0.150000 -0.200000
v 1.000000 0.050000 -0.600000
v 1.000000 0.150000 -0.600000
v -1.000000 0.150000 -0.600000
v -1.000000 0.250000 -0.600000
v -1.000000 0.150000 -1.000000
v -1.000000 0.250000 -1.000000
v 1.000000 0.150000 -0.600000
v 1.000000 0.250000 -0.600000
v 1.000000 0.150000 -1.000000
v 1.000000 0.250000 -1.000000
v -1.000000 0.250000 -1.000000
v -1.000000 0.350000 -1.000000
v -1.000000 0.250000 -1.400000
v -1.000000 0.350000 -1.400000
v 1.000000 0.250000 -1.000000
v 1.000000 0.350000 -1.000000
v 1.000000 0.250000 -1.400000
v 1.000000 0.350000 -1.400000
v -1.000000 0.350000 -1.400000
v -1.000000 0.450000 -1.400000
v -1.000000 0.350000 -1.800000
v -1.000000 0.450000 -1.800000
v 1.000000 0.350000 -1.400000
v 1.000000 0.450000 -1.400000
v 1.000000 0.350000 -1.800000
v 1.000000 0.450000 -1.800000
v -1.000000 0.450000 -1.800000
v -1.000000 0.550000 -1.800000
v -1.000000 0.450000 -2.200000
v -1.000000 0.550000 -2.200000
v 1.000000 0.450000 -1.800000
v 1.000000 0.550000 -1.800000
v 1.000000 0.450000 -2.200000
v 1.000000 0.550000 -2.200000
v -0.100000 0.008863 -0.184303
v 0.100000 0.008863 -0.184303
v -0.100000 0.508863 -2.184303
v 0.100000 0.508863 -2.184303
v 0.100000 0.008863 -0.184303
v -0.100000 0.008863 -0.184303
v 0.100000 0.508863 -2.184303
v -0.100000 0.508863 -2.184303
v 0.100000 0.454967 -2.197777
v -0.100000 0.454967 -2.197777
v 0.100000 -0.045033 -0.197777
v -0.100000 -0.045033 -0.197777
v 0.793409 0.008863 -0.184303
v 0.993409 0.008863 -0.184303
v 0.793409 0.508863 -2.184303
v 0.993409 0.508863 -2.184303
v 0.993409 0.008863 -0.184303
v 0.793409 0.008863 -0.184303
v 0.993409 0.508863 -2.184303
v 0.793409 0.508863 -2.184303
v 0.993409 0.454967 -2.197777
v 0.793409 0.454967 -2.197777
v 0.993409 -0.045033 -0.197777
v 0.793409 -0.045033 -0.197777
v -0.991591 0.008863 -0.184303
v -0.791591 0.008863 -0.184303
v -0.991591 0.508863 -2.184303
v -0.791591 0.508863 -2.184303
v -0.791591 0.008863 -0.184303
v -0.991591 0.008863 -0.184303
v -0.791591 0.508863 -2.184303
v -0.991591 0.508863 -2.184303
v -0.791591 0.454967 -2.197777
v -0.991591 0.454967 -2.197777
v -0.791591 -0.045033 -0.197777
v -0.991591 -0.045033 -0.197777
vn -1.0000 -0.0000 -0.0000
vn -0.0000 -0.0000 -1.0000
vn 1.0000 -0.0000 -0.0000
vn -0.0000 -0.0000 1.0000
vn -0.0000 -1.0000 -0.0000
vn -0.0000 1.0000 -0.0000
vn -0.0000 0.9701 0.2425
vn -0.0000 -0.9701 -0.2425
vn -0.0000 -0.2425 0.9701
vn -0.0000 0.2425 -0.9701
vt 0.375000 0.000000
vt 0.625000 0.000000
vt 0.625000 0.250000
vt 0.375000 0.250000
vt 0.625000 0.500000
vt 0.375000 0.500000
vt 0.625000 0.750000
vt 0.375000 0.750000
vt 0.625000 1.000000
vt 0.375000 1.000000
vt 0.125000 0.500000
vt 0.125000 0.750000
vt 0.875000 0.500000
vt 0.875000 0.750000
s 0
f 1/1/1 2/2/1 4/3/1 3/4/1
f 3/4/2 4/3/2 8/5/2 7/6/2
f 7/6/3 8/5/3 6/7/3 5/8/3
f 5/8/4 6/7/4 2/9/4 1/10/4
f 3/11/5 7/6/5 5/8/5 1/12/5
f 8/5/6 4/13/6 2/14/6 6/7/6
f 9/1/1 10/2/1 12/3/1 11/4/1
f 11/4/2 12/3/2 16/5/2 15/6/2
f 15/6/3 16/5/3 14/7/3 13/8/3
f 13/8/4 14/7/4 10/9/4 9/10/4
f 11/11/5 15/6/5 13/8/5 9/12/5
f 16/5/6 12/13/6 10/14/6 14/7/6
f 17/1/1 18/2/1 20/3/1 19/4/1
f 19/4/2 20/3/2 24/5/2 23/6/2
f 23/6/3 24/5/3 22/7/3 21/8/3
f 21/8/4 22/7/4 18/9/4 17/10/4
f 19/11/5 23/6/5 21/8/5 17/12/5
f 24/5/6 20/13/6 18/14/6 22/7/6
f 25/1/1 26/2/1 28/3/1 27/4/1
f 27/4/2 28/3/2 32/5/2 31/6/2
f 31/6/3 32/5/3 30/7/3 29/8/3
f 29/8/4 30/7/4 26/9/4 25/10/4
f 27/11/5 31/6/5 29/8/5 25/12/5
f 32/5/6 28/13/6 26/14/6 30/7/6
f 33/1/1 34/2/1 36/3/1 35/4/1
f 35/4/2 36/3/2 40/5/2 39/6/2
f 39/6/3 40/5/3 38/7/3 37/8/3
f 37/8/4 38/7/4 34/9/4 33/10/4
f 35/11/5 39/6/5 37/8/5 33/12/5
f 40/5/6 36/13/6 34/14/6 38/7/6
f 41/1/1 42/2/1 44/3/1 43/4/1
f 43/4/2 44/3/2 48/5/2 47/6/2
f 47/6/3 48/5/3 46/7/3 45/8/3
f 45/8/4 46/7/4 42/9/4 41/10/4
f 43/11/5 47/6/5 45/8/5 41/12/5
f 48/5/6 44/13/6 42/14/6 46/7/6
f 54/4/1 56/4/1 58/4/1 60/4/1
f 50/6/7 52/6/7 51/4/7 49/4/7
f 49/4/6 51/4/6 56/4/6 54/4/6
f 51/4/6 52/6/6 55/6/6 56/4/6
f 52/6/6 50/6/6 53/6/6 55/6/6
f 50/6/6 49/4/6 54/4/6 53/6/6
f 59/6/8 60/4/8 58/4/8 57/6/8
f 53/6/9 54/4/9 60/4/9 59/6/9
f 55/6/3 53/6/3 59/6/3 57/6/3
f 56/4/10 55/6/10 57/6/10 58/4/10
f 66/4/1 68/4/1 70/4/1 72/4/1
f 62/6/7 64/6/7 63/4/7 61/4/7
f 61/4/6 63/4/6 68/4/6 66/4/6
f 63/4/6 64/6/6 67/6/6 68/4/6
f 64/6/6 62/6/6 65/6/6 67/6/6
f 62/6/6 61/4/6 66/4/6 65/6/6
f 71/6/8 72/4/8 70/4/8 69/6/8
f 65/6/9 66/4/9 72/4/9 71/6/9
f 67/6/3 65/6/3 71/6/3 69/6/3
f 68/4/10 67/6/10 69/6/10 70/4/10
f 78/4/1 80/4/1 82/4/1 84/4/1
f 74/6/7 76/6/7 75/4/7 73/4/7
f 73/4/6 75/4/6 80/4/6 78/4/6
f 75/4/6 76/6/6 79/6/6 80/4/6
f 76/6/6 74/6/6 77/6/6 79/6/6
f 74/6/6 73/4/6 78/4/6 77/6/6
f 83/6/8 84/4/8 82/4/8 81/6/8
f 77/6/9 78/4/9 84/4/9 83/6/9
f 79/6/3 77/6/3 83/6/3 81/6/3
f 80/4/10 79/6/10 81/6/10 82/4/10
