# Blender 3.6.1
# www.blender.org
mtllib steps.mtl
o Steps
v 0.101492 0.015098 0.502543
v 0.101492 0.115098 0.502543
v -0.098548 0.015098 0.503129
v -0.098548 0.115098 0.503129
v 0.197960 0.015098 0.980210
v 0.197960 0.115098 0.980210
v -0.192219 0.015098 0.981352
v -0.192219 0.115098 0.981352
v 0.228102 0.165098 0.459151
v 0.228102 0.265098 0.459151
v 0.035029 0.165098 0.511491
v 0.035029 0.265098 0.511491
v 0.444912 0.165098 0.895574
v 0.444912 0.265098 0.895574
v 0.068324 0.165098 0.997663
v 0.068324 0.265098 0.997663
v 0.339166 0.315098 0.384469
v 0.339166 0.415098 0.384469
v 0.166219 0.315098 0.484997
v 0.166219 0.415098 0.484997
v 0.661544 0.315098 0.749907
v 0.661544 0.415098 0.749907
v 0.324210 0.315098 0.945985
v 0.324210 0.415098 0.945985
v 0.427118 0.465098 0.283586
v 0.427118 0.565098 0.283586
v 0.286082 0.465098 0.425450
v 0.286082 0.565098 0.425450
v 0.833092 0.465098 0.553134
v 0.833092 0.565098 0.553134
v 0.558002 0.465098 0.829840
v 0.558002 0.565098 0.829840
v 0.485961 0.615098 0.163377
v 0.485961 0.715098 0.163377
v 0.386448 0.615098 0.336910
v 0.386448 0.715098 0.336910
v 0.947867 0.615098 0.318666
v 0.947867 0.715098 0.318666
v 0.753767 0.615098 0.657142
v 0.753767 0.715098 0.657142
v 0.511688 0.765098 0.032034
v 0.511688 0.865098 0.032034
v 0.460479 0.765098 0.225410
v 0.460479 0.865098 0.225410
v 0.998046 0.765098 0.062482
v 0.998046 0.865098 0.062482
v 0.898163 0.765098 0.439662
v 0.898163 0.865098 0.439662
v 0.502543 0.915098 -0.101492
v 0.502543 1.015098 -0.101492
v 0.503129 0.915098 0.098549
v 0.503129 1.015098 0.098549
v 0.980210 0.915098 -0.197960
v 0.980210 1.015098 -0.197960
v 0.981352 0.915098 0.192219
v 0.981352 1.015098 0.192219
v 0.459151 1.065098 -0.228102
v 0.459151 1.165098 -0.228102
v 0.511491 1.065098 -0.035029
v 0.511491 1.165098 -0.035029
v 0.895574 1.065098 -0.444912
v 0.895574 1.165098 -0.444912
v 0.997663 1.065098 -0.068324
v 0.997663 1.165098 -0.068324
v 0.384469 1.215098 -0.339166
v 0.384469 1.315098 -0.339166
v 0.484997 1.215098 -0.166219
v 0.484997 1.315098 -0.166219
v 0.749907 1.215098 -0.661543
v 0.749907 1.315098 -0.661543
v 0.945985 1.215098 -0.324210
v 0.945985 1.315098 -0.324210
v 0.283586 1.365098 -0.427117
v 0.283586 1.465099 -0.427117
v 0.425450 1.365098 -0.286081
v 0.425450 1.465099 -0.286081
v 0.553134 1.365098 -0.833092
v 0.553134 1.465099 -0.833092
v 0.829840 1.365098 -0.558001
v 0.829840 1.465099 -0.558001
v 0.163377 1.515099 -0.485961
v 0.163377 1.615099 -0.485961
v 0.336910 1.515099 -0.386448
v 0.336910 1.615099 -0.386448
v 0.318666 1.515099 -0.947867
v 0.318666 1.615099 -0.947867
v 0.657142 1.515099 -0.753766
v 0.657142 1.615099 -0.753766
v 0.032034 1.665099 -0.511687
v 0.032034 1.765099 -0.511687
v 0.225410 1.665099 -0.460479
v 0.225410 1.765099 -0.460479
v 0.062482 1.665099 -0.998046
v 0.062482 1.765099 -0.998046
v 0.439662 1.665099 -0.898163
v 0.439662 1.765099 -0.898163
v -0.101492 1.815099 -0.502543
v -0.101492 1.915099 -0.502543
v 0.098549 1.815099 -0.503129
v 0.098549 1.915099 -0.503129
v -0.197960 1.815099 -0.980210
v -0.197960 1.915099 -0.980210
v 0.192219 1.815099 -0.981352
v 0.192219 1.915099 -0.981352
v -0.228101 1.965099 -0.459151
v -0.228101 2.065099 -0.459151
v -0.035029 1.965099 -0.511491
v -0.035029 2.065099 -0.511491
v -0.444912 1.965099 -0.895574
v -0.444912 2.065099 -0.895574
v -0.068324 1.965099 -0.997663
v -0.068324 2.065099 -0.997663
v -0.339166 2.115099 -0.384469
v -0.339166 2.215099 -0.384469
v -0.166219 2.115099 -0.484996
v -0.166219 2.215099 -0.484996
v -0.661543 2.115099 -0.749906
v -0.661543 2.215099 -0.749906
v -0.324210 2.115099 -0.945985
v -0.324210 2.215099 -0.945985
v -0.427117 2.265099 -0.283586
v -0.427117 2.365099 -0.283586
v -0.286081 2.265099 -0.425450
v -0.286081 2.365099 -0.425450
v -0.833092 2.265099 -0.553134
v -0.833092 2.365099 -0.553134
v -0.558001 2.265099 -0.829840
v -0.558001 2.365099 -0.829840
v -0.485961 2.415099 -0.163377
v -0.485961 2.515099 -0.163377
v -0.386448 2.415099 -0.336910
v -0.386448 2.515099 -0.336910
v -0.947866 2.415099 -0.318666
v -0.947866 2.515099 -0.318666
v -0.753766 2.415099 -0.657142
v -0.753766 2.515099 -0.657142
v -0.511687 2.565099 -0.032034
v -0.511687 2.665099 -0.032034
v -0.460479 2.565099 -0.225410
v -0.460479 2.665099 -0.225410
v -0.998045 2.565099 -0.062482
v -0.998045 2.665099 -0.062482
v -0.898163 2.565099 -0.439661
v -0.898163 2.665099 -0.439661
v -0.502543 2.715099 0.101492
v -0.502543 2.815099 0.101492
v -0.503128 2.715099 -0.098548
v -0.503128 2.815099 -0.098548
v -0.980209 2.715099 0.197960
v -0.980209 2.815099 0.197960
v -0.981351 2.715099 -0.192218
v -0.981351 2.815099 -0.192218
v -0.459151 2.865099 0.228102
v -0.459151 2.965099 0.228102
v -0.511491 2.865099 0.035029
v -0.511491 2.965099 0.035029
v -0.895573 2.865099 0.444912
v -0.895573 2.965099 0.444912
v -0.997662 2.865099 0.068324
v -0.997662 2.965099 0.068324
v -0.384469 3.015100 0.339166
v -0.384469 3.115099 0.339166
v -0.484996 3.015100 0.166219
v -0.484996 3.115099 0.166219
v -0.749906 3.015100 0.661543
v -0.749906 3.115099 0.661543
v -0.945984 3.015100 0.324210
v -0.945984 3.115099 0.324210
v -0.283586 3.165100 0.427117
v -0.283586 3.265100 0.427117
v -0.425450 3.165100 0.286081
v -0.425450 3.265100 0.286081
v -0.553133 3.165100 0.833092
v -0.553133 3.265100 0.833092
v -0.829839 3.165100 0.558001
v -0.829839 3.265100 0.558001
v -0.163377 3.315100 0.485961
v -0.163377 3.415100 0.485961
v -0.336910 3.315100 0.386448
v -0.336910 3.415100 0.386448
v -0.318666 3.315100 0.947866
v -0.318666 3.415100 0.947866
v -0.657142 3.315100 0.753766
v -0.657142 3.415100 0.753766
v -0.032034 3.465100 0.511687
v -0.032034 3.565100 0.511687
v -0.225410 3.465100 0.460479
v -0.225410 3.565100 0.460479
v -0.062482 3.465100 0.998046
v -0.062482 3.565100 0.998046
v -0.439661 3.465100 0.898163
v -0.439661 3.565100 0.898163
v 0.101492 3.615100 0.502543
v 0.101492 3.715100 0.502543
v -0.098548 3.615100 0.503129
v -0.098548 3.715100 0.503129
v 0.197960 3.615100 0.980209
v 0.197960 3.715100 0.980209
v -0.192218 3.615100 0.981351
v -0.192218 3.715100 0.981351
vn 0.0029 -0.0000 1.0000
vn -0.0000 -1.0000 -0.0000
vn -0.0000 1.0000 -0.0000
vn -0.0029 -0.0000 -1.0000
vn 0.9802 -0.0000 -0.1980
vn -0.9814 -0.0000 -0.1922
vn 0.2616 -0.0000 0.9652
vn -0.2616 -0.0000 -0.9652
vn 0.8956 -0.0000 -0.4449
vn -0.9977 -0.0000 0.0683
vn 0.5025 -0.0000 0.8646
vn -0.5025 -0.0000 -0.8646
vn 0.7499 -0.0000 -0.6615
vn -0.9460 -0.0000 0.3242
vn 0.7092 -0.0000 0.7050
vn -0.7092 -0.0000 -0.7050
vn 0.5531 -0.0000 -0.8331
vn -0.8298 -0.0000 0.5580
vn 0.8675 -0.0000 0.4975
vn -0.8675 -0.0000 -0.4975
vn 0.3187 -0.0000 -0.9479
vn -0.6571 -0.0000 0.7538
vn 0.9667 -0.0000 0.2560
vn -0.9667 -0.0000 -0.2560
vn 0.0625 -0.0000 -0.9980
vn -0.4397 -0.0000 0.8982
vn 1.0000 -0.0000 -0.0029
vn -1.0000 -0.0000 0.0029
vn -0.1980 -0.0000 -0.9802
vn -0.1922 -0.0000 0.9814
vn 0.9652 -0.0000 -0.2616
vn -0.9652 -0.0000 0.2616
vn -0.4449 -0.0000 -0.8956
vn 0.0683 -0.0000 0.9977
vn 0.8646 -0.0000 -0.5025
vn -0.8646 -0.0000 0.5025
vn -0.6615 -0.0000 -0.7499
vn 0.3242 -0.0000 0.9460
vn 0.7050 -0.0000 -0.7092
vn -0.7050 -0.0000 0.7092
vn -0.8331 -0.0000 -0.5531
vn 0.5580 -0.0000 0.8298
vn 0.4975 -0.0000 -0.8675
vn -0.4975 -0.0000 0.8675
vn -0.9479 -0.0000 -0.3187
vn 0.7538 -0.0000 0.6571
vn 0.2560 -0.0000 -0.9667
vn -0.2560 -0.0000 0.9667
vn -0.9980 -0.0000 -0.0625
vn 0.8982 -0.0000 0.4397
vn -0.9802 -0.0000 0.1980
vn 0.9814 -0.0000 0.1922
vn -0.8956 -0.0000 0.4449
vn 0.9977 -0.0000 -0.0683
vn -0.7499 -0.0000 0.6615
vn 0.9460 -0.0000 -0.3242
vn -0.5531 -0.0000 0.8331
vn 0.8298 -0.0000 -0.5580
vn -0.3187 -0.0000 0.9479
vn 0.6571 -0.0000 -0.7538
vn -0.0625 -0.0000 0.9980
vn 0.4397 -0.0000 -0.8982
vn 0.1980 -0.0000 0.9802
vn 0.1922 -0.0000 -0.9814
vn 0.4449 -0.0000 0.8956
vn -0.0683 -0.0000 -0.9977
vn 0.6615 -0.0000 0.7499
vn -0.3242 -0.0000 -0.9460
vn 0.8331 -0.0000 0.5531
vn -0.5580 -0.0000 -0.8298
vn 0.9479 -0.0000 0.3187
vn -0.7538 -0.0000 -0.6571
vn 0.9980 -0.0000 0.0625
vn -0.8982 -0.0000 -0.4397
vt 0.562500 0.500000
vt 0.562500 1.000000
vt 0.500000 1.000000
vt 0.500000 0.500000
vt 0.750000 0.126955
vt 0.797087 0.136321
vt 0.841844 0.028269
vt 0.750000 0.010000
vt 0.297087 0.136321
vt 0.250000 0.126955
vt 0.250000 0.010000
vt 0.341844 0.028269
s 0
f 5/1/1 6/2/1 8/3/1 7/4/1
f 3/5/2 1/6/2 5/7/2 7/8/2
f 2/9/3 4/10/3 8/11/3 6/12/3
f 4/10/4 2/9/4 1/6/4 3/5/4
f 5/7/5 1/6/5 2/9/5 6/12/5
f 7/8/6 8/11/6 4/10/6 3/5/6
f 13/1/7 14/2/7 16/3/7 15/4/7
f 11/5/2 9/6/2 13/7/2 15/8/2
f 10/9/3 12/10/3 16/11/3 14/12/3
f 12/10/8 10/9/8 9/6/8 11/5/8
f 13/7/9 9/6/9 10/9/9 14/12/9
f 15/8/10 16/11/10 12/10/10 11/5/10
f 21/1/11 22/2/11 24/3/11 23/4/11
f 19/5/2 17/6/2 21/7/2 23/8/2
f 18/9/3 20/10/3 24/11/3 22/12/3
f 20/10/12 18/9/12 17/6/12 19/5/12
f 21/7/13 17/6/13 18/9/13 22/12/13
f 23/8/14 24/11/14 20/10/14 19/5/14
f 29/1/15 30/2/15 32/3/15 31/4/15
f 27/5/2 25/6/2 29/7/2 31/8/2
f 26/9/3 28/10/3 32/11/3 30/12/3
f 28/10/16 26/9/16 25/6/16 27/5/16
f 29/7/17 25/6/17 26/9/17 30/12/17
f 31/8/18 32/11/18 28/10/18 27/5/18
f 37/1/19 38/2/19 40/3/19 39/4/19
f 35/5/2 33/6/2 37/7/2 39/8/2
f 34/9/3 36/10/3 40/11/3 38/12/3
f 36/10/20 34/9/20 33/6/20 35/5/20
f 37/7/21 33/6/21 34/9/21 38/12/21
f 39/8/22 40/11/22 36/10/22 35/5/22
f 45/1/23 46/2/23 48/3/23 47/4/23
f 43/5/2 41/6/2 45/7/2 47/8/2
f 42/9/3 44/10/3 48/11/3 46/12/3
f 44/10/24 42/9/24 41/6/24 43/5/24
f 45/7/25 41/6/25 42/9/25 46/12/25
f 47/8/26 48/11/26 44/10/26 43/5/26
f 53/1/27 54/2/27 56/3/27 55/4/27
f 51/5/2 49/6/2 53/7/2 55/8/2
f 50/9/3 52/10/3 56/11/3 54/12/3
f 52/10/28 50/9/28 49/6/28 51/5/28
f 53/7/29 49/6/29 50/9/29 54/12/29
f 55/8/30 56/11/30 52/10/30 51/5/30
f 61/1/31 62/2/31 64/3/31 63/4/31
f 59/5/2 57/6/2 61/7/2 63/8/2
f 58/9/3 60/10/3 64/11/3 62/12/3
f 60/10/32 58/9/32 57/6/32 59/5/32
f 61/7/33 57/6/33 58/9/33 62/12/33
f 63/8/34 64/11/34 60/10/34 59/5/34
f 69/1/35 70/2/35 72/3/35 71/4/35
f 67/5/2 65/6/2 69/7/2 71/8/2
f 66/9/3 68/10/3 72/11/3 70/12/3
f 68/10/36 66/9/36 65/6/36 67/5/36
f 69/7/37 65/6/37 66/9/37 70/12/37
f 71/8/38 72/11/38 68/10/38 67/5/38
f 77/1/39 78/2/39 80/3/39 79/4/39
f 75/5/2 73/6/2 77/7/2 79/8/2
f 74/9/3 76/10/3 80/11/3 78/12/3
f 76/10/40 74/9/40 73/6/40 75/5/40
f 77/7/41 73/6/41 74/9/41 78/12/41
f 79/8/42 80/11/42 76/10/42 75/5/42
f 85/1/43 86/2/43 88/3/43 87/4/43
f 83/5/2 81/6/2 85/7/2 87/8/2
f 82/9/3 84/10/3 88/11/3 86/12/3
f 84/10/44 82/9/44 81/6/44 83/5/44
f 85/7/45 81/6/45 82/9/45 86/12/45
f 87/8/46 88/11/46 84/10/46 83/5/46
f 93/1/47 94/2/47 96/3/47 95/4/47
f 91/5/2 89/6/2 93/7/2 95/8/2
f 90/9/3 92/10/3 96/11/3 94/12/3
f 92/10/48 90/9/48 89/6/48 91/5/48
f 93/7/49 89/6/49 90/9/49 94/12/49
f 95/8/50 96/11/50 92/10/50 91/5/50
f 101/1/4 102/2/4 104/3/4 103/4/4
f 99/5/2 97/6/2 101/7/2 103/8/2
f 98/9/3 100/10/3 104/11/3 102/12/3
f 100/10/1 98/9/1 97/6/1 99/5/1
f 101/7/51 97/6/51 98/9/51 102/12/51
f 103/8/52 104/11/52 100/10/52 99/5/52
f 109/1/8 110/2/8 112/3/8 111/4/8
f 107/5/2 105/6/2 109/7/2 111/8/2
f 106/9/3 108/10/3 112/11/3 110/12/3
f 108/10/7 106/9/7 105/6/7 107/5/7
f 109/7/53 105/6/53 106/9/53 110/12/53
f 111/8/54 112/11/54 108/10/54 107/5/54
f 117/1/12 118/2/12 120/3/12 119/4/12
f 115/5/2 113/6/2 117/7/2 119/8/2
f 114/9/3 116/10/3 120/11/3 118/12/3
f 116/10/11 114/9/11 113/6/11 115/5/11
f 117/7/55 113/6/55 114/9/55 118/12/55
f 119/8/56 120/11/56 116/10/56 115/5/56
f 125/1/16 126/2/16 128/3/16 127/4/16
f 123/5/2 121/6/2 125/7/2 127/8/2
f 122/9/3 124/10/3 128/11/3 126/12/3
f 124/10/15 122/9/15 121/6/15 123/5/15
f 125/7/57 121/6/57 122/9/57 126/12/57
f 127/8/58 128/11/58 124/10/58 123/5/58
f 133/1/20 134/2/20 136/3/20 135/4/20
f 131/5/2 129/6/2 133/7/2 135/8/2
f 130/9/3 132/10/3 136/11/3 134/12/3
f 132/10/19 130/9/19 129/6/19 131/5/19
f 133/7/59 129/6/59 130/9/59 134/12/59
f 135/8/60 136/11/60 132/10/60 131/5/60
f 141/1/24 142/2/24 144/3/24 143/4/24
f 139/5/2 137/6/2 141/7/2 143/8/2
f 138/9/3 140/10/3 144/11/3 142/12/3
f 140/10/23 138/9/23 137/6/23 139/5/23
f 141/7/61 137/6/61 138/9/61 142/12/61
f 143/8/62 144/11/62 140/10/62 139/5/62
f 149/1/28 150/2/28 152/3/28 151/4/28
f 147/5/2 145/6/2 149/7/2 151/8/2
f 146/9/3 148/10/3 152/11/3 150/12/3
f 148/10/27 146/9/27 145/6/27 147/5/27
f 149/7/63 145/6/63 146/9/63 150/12/63
f 151/8/64 152/11/64 148/10/64 147/5/64
f 157/1/32 158/2/32 160/3/32 159/4/32
f 155/5/2 153/6/2 157/7/2 159/8/2
f 154/9/3 156/10/3 160/11/3 158/12/3
f 156/10/31 154/9/31 153/6/31 155/5/31
f 157/7/65 153/6/65 154/9/65 158/12/65
f 159/8/66 160/11/66 156/10/66 155/5/66
f 165/1/36 166/2/36 168/3/36 167/4/36
f 163/5/2 161/6/2 165/7/2 167/8/2
f 162/9/3 164/10/3 168/11/3 166/12/3
f 164/10/35 162/9/35 161/6/35 163/5/35
f 165/7/67 161/6/67 162/9/67 166/12/67
f 167/8/68 168/11/68 164/10/68 163/5/68
f 173/1/40 174/2/40 176/3/40 175/4/40
f 171/5/2 169/6/2 173/7/2 175/8/2
f 170/9/3 172/10/3 176/11/3 174/12/3
f 172/10/39 170/9/39 169/6/39 171/5/39
f 173/7/69 169/6/69 170/9/69 174/12/69
f 175/8/70 176/11/70 172/10/70 171/5/70
f 181/1/44 182/2/44 184/3/44 183/4/44
f 179/5/2 177/6/2 181/7/2 183/8/2
f 178/9/3 180/10/3 184/11/3 182/12/3
f 180/10/43 178/9/43 177/6/43 179/5/43
f 181/7/71 177/6/71 178/9/71 182/12/71
f 183/8/72 184/11/72 180/10/72 179/5/72
f 189/1/48 190/2/48 192/3/48 191/4/48
f 187/5/2 185/6/2 189/7/2 191/8/2
f 186/9/3 188/10/3 192/11/3 190/12/3
f 188/10/47 186/9/47 185/6/47 187/5/47
f 189/7/73 185/6/73 186/9/73 190/12/73
f 191/8/74 192/11/74 188/10/74 187/5/74
f 197/1/1 198/2/1 200/3/1 199/4/1
f 195/5/2 193/6/2 197/7/2 199/8/2
f 194/9/3 196/10/3 200/11/3 198/12/3
f 196/10/4 194/9/4 193/6/4 195/5/4
f 197/7/5 193/6/5 194/9/5 198/12/5
f 199/8/6 200/11/6 196/10/6 195/5/6
